<?xml version="1.0" encoding="UTF-8" standalone="no"?>
<!-- Created with Inkscape (http://www.inkscape.org/) -->

<svg
   xmlns:dc="http://purl.org/dc/elements/1.1/"
   xmlns:cc="http://creativecommons.org/ns#"
   xmlns:rdf="http://www.w3.org/1999/02/22-rdf-syntax-ns#"
   xmlns:svg="http://www.w3.org/2000/svg"
   xmlns="http://www.w3.org/2000/svg"
   xmlns:sodipodi="http://sodipodi.sourceforge.net/DTD/sodipodi-0.dtd"
   xmlns:inkscape="http://www.inkscape.org/namespaces/inkscape"
   width="1100"
   height="300"
   id="svg2989"
   version="1.1"
   inkscape:version="0.48.2 r9819"
   inkscape:export-filename="/Users/guillaumechabin/git/pnyx/static/pnyx/images/slide.png"
   inkscape:export-xdpi="90"
   inkscape:export-ydpi="90"
   sodipodi:docname="slide.svg">
  <defs
     id="defs2991" />
  <sodipodi:namedview
     id="base"
     pagecolor="#ffffff"
     bordercolor="#666666"
     borderopacity="1.0"
     inkscape:pageopacity="0"
     inkscape:pageshadow="2"
     inkscape:zoom="1.02"
     inkscape:cx="521.20251"
     inkscape:cy="251.06952"
     inkscape:document-units="px"
     inkscape:current-layer="g5848"
     showgrid="true"
     inkscape:window-width="1280"
     inkscape:window-height="752"
     inkscape:window-x="0"
     inkscape:window-y="0"
     inkscape:window-maximized="1">
    <inkscape:grid
       type="xygrid"
       id="grid2997"
       empspacing="5"
       visible="true"
       enabled="true"
       snapvisiblegridlinesonly="true" />
  </sodipodi:namedview>
  <metadata
     id="metadata2994">
    <rdf:RDF>
      <cc:Work
         rdf:about="">
        <dc:format>image/svg+xml</dc:format>
        <dc:type
           rdf:resource="http://purl.org/dc/dcmitype/StillImage" />
        <dc:title></dc:title>
      </cc:Work>
    </rdf:RDF>
  </metadata>
  <g
     inkscape:label="Layer 1"
     inkscape:groupmode="layer"
     id="layer1"
     transform="translate(0,-752.36218)">
    <g
       id="g4316">
      <g
         id="g4311"
         transform="translate(215.63086,-66.513674)">
        <g
           id="g4325"
           transform="translate(-105.63086,24.733312)">
          <g
             id="g5856"
             transform="translate(0,-38.772864)">
            <g
               transform="translate(62.230987,0)"
               id="g5848">
              <g
                 id="g4372"
                 transform="translate(-24.139435,24.206911)"
                 inkscape:export-xdpi="90"
                 inkscape:export-ydpi="90">
                <text
                   transform="scale(1.0124229,0.98772954)"
                   inkscape:export-ydpi="90"
                   inkscape:export-xdpi="90"
                   inkscape:export-filename="/Users/guillaumechabin/git/pnyx/static/pnyx/images/slide.png"
                   xml:space="preserve"
                   style="font-size:88.15553284px;font-style:normal;font-weight:normal;line-height:0%;letter-spacing:0px;word-spacing:0px;fill:#2fa4e7;fill-opacity:1;stroke:none;font-family:Sans"
                   x="272.41971"
                   y="983.03937"
                   id="text3027"
                   sodipodi:linespacing="0%"><tspan
                     sodipodi:role="line"
                     id="tspan3029"
                     x="272.41971"
                     y="983.03937"
                     style="font-size:88.15553284px;font-style:normal;font-variant:normal;font-weight:normal;font-stretch:normal;fill:#2fa4e7;fill-opacity:1;font-family:Caviar Dreams;-inkscape-font-specification:Caviar Dreams">Pnyx</tspan></text>
                <rect
                   inkscape:export-ydpi="90"
                   inkscape:export-xdpi="90"
                   inkscape:export-filename="/Users/guillaumechabin/git/pnyx/static/pnyx/images/slide.png"
                   style="fill:none;stroke:#2fa4e7;stroke-width:1.66516006;stroke-linecap:square;stroke-linejoin:round;stroke-miterlimit:4;stroke-opacity:1;stroke-dasharray:none"
                   id="rect3031"
                   width="198.33484"
                   height="96.748703"
                   x="264.97202"
                   y="896.56128"
                   rx="9.9167423"
                   ry="9.6748705" />
              </g>
              <text
                 xml:space="preserve"
                 style="font-size:40px;font-style:normal;font-weight:normal;line-height:0%;letter-spacing:0px;word-spacing:0px;fill:#000000;fill-opacity:1;stroke:none;font-family:Sans"
                 x="456.89011"
                 y="1011.0253"
                 id="text4368"
                 sodipodi:linespacing="0%"
                 inkscape:export-filename="/Users/guillaumechabin/git/pnyx/static/pnyx/images/g4372.png"
                 inkscape:export-xdpi="90"
                 inkscape:export-ydpi="90"><tspan
                   sodipodi:role="line"
                   id="tspan4370"
                   x="456.89011"
                   y="1011.0253"
                   style="font-style:normal;font-variant:normal;font-weight:normal;font-stretch:normal;fill:#2fa4e7;fill-opacity:1;font-family:Caviar Dreams;-inkscape-font-specification:Caviar Dreams">by TUM</tspan></text>
              <text
                 xml:space="preserve"
                 style="font-size:28px;font-style:normal;font-weight:normal;line-height:0%;letter-spacing:0px;word-spacing:0px;fill:#2fa4e7;fill-opacity:1;stroke:none;font-family:Sans"
                 x="457.76901"
                 y="941.81061"
                 id="text3084"
                 sodipodi:linespacing="0%"><tspan
                   sodipodi:role="line"
                   id="tspan3086"
                   x="457.76901"
                   y="941.81061"
                   style="font-size:28px;font-style:normal;font-variant:normal;font-weight:normal;font-stretch:normal;fill:#2fa4e7;fill-opacity:1;font-family:Caviar Dreams;-inkscape-font-specification:Caviar Dreams">beta release</tspan></text>
            </g>
            <g
               id="g3267"
               transform="translate(-4.2661297,-2.5474859)">
              <g
                 style="fill:#2fa4e7;fill-opacity:1"
                 transform="matrix(0.21585424,0,0,0.21585424,211.0573,858.64239)"
                 id="g5577">
                <path
                   id="path5489"
                   d="m 2892.3316,361.65219 c -18.9732,0 -36.1202,-11.48713 -43.6611,-17.3662 -23.5809,5.90139 -40.9573,2.31784 -51.6083,-10.2246 -7.6712,-9.0354 -9.6432,-20.6118 -9.9967,-28.45163 -14.0679,-5.22229 -32.7001,-20.35038 -32.7001,-42.38092 0,-29.82253 18.3035,-47.6255 48.9665,-47.6255 2.5177,0 4.8557,0.12428 6.9331,0.29968 4.2728,-12.89631 13.0075,-23.39509 26.0708,-31.29231 14.0091,-8.47107 27.522,-12.7624 40.1698,-12.7624 20.3903,0 33.5745,10.90368 40.3465,18.61279 7.5037,-3.58038 14.7749,-5.3849 21.6894,-5.3849 24.6011,0 36.9947,21.59695 41.7698,32.82903 28.5234,2.60159 40.8612,22.16764 42.8084,40.54767 2.1426,20.19413 -6.8743,39.62948 -20.8833,47.34497 -0.4651,10.28518 -3.6464,18.73076 -9.4975,25.18052 -7.8696,8.67194 -19.9717,13.06849 -35.9745,13.06849 0,0 0,0 0,0 -10.1983,0 -19.9469,-1.8141 -26.1421,-3.27748 -12.5641,17.08244 -27.4972,20.88279 -38.2876,20.88279 z M 2850.841,324.2927 c 2.2604,0 4.4743,0.85125 6.1983,2.44536 0.1581,0.14347 17.5097,15.84224 35.2923,15.84224 10.6324,0 19.2741,-5.79936 26.4119,-17.72647 2.2232,-3.7079 6.6076,-5.39127 10.6447,-4.10961 0.1241,0.0351 13.5378,4.22438 27.3731,4.22438 l 0,0 c 7.3208,0 17.1563,-1.21152 22.4151,-7.00769 3.5038,-3.86092 5.0045,-9.91535 4.4588,-18.00066 -0.3163,-4.70901 2.7659,-8.94614 7.2433,-9.96956 8.499,-1.93842 15.2059,-16.26625 13.8075,-29.47501 -0.9458,-8.88873 -6.2108,-23.80318 -30.8769,-23.83506 -4.1085,-0.006 -7.727,-2.79289 -8.8836,-6.84511 -0.065,-0.22636 -7.7642,-25.69061 -26.3809,-25.69061 -5.7394,0 -12.2974,2.25087 -19.4848,6.68569 -2.1333,1.31672 -4.6914,1.69293 -7.1038,1.05211 -2.4092,-0.64084 -4.465,-2.25408 -5.7084,-4.4667 -0.3566,-0.61531 -9.8075,-16.49899 -29.7389,-16.49899 -9.296,0 -19.6461,3.4082 -30.7684,10.13532 -11.3362,6.85467 -17.4942,15.44052 -19.3701,27.01692 -0.4155,2.57926 -1.8512,4.87159 -3.9597,6.33497 -2.1084,1.4634 -4.7161,1.97351 -7.1967,1.40601 -0.028,-0.006 -5.1658,-1.13182 -11.8757,-1.13182 -13.0571,0 -30.418,2.95866 -30.418,28.55043 0,15.19501 19.0383,25.30803 23.6026,25.31441 2.6728,0.004 5.2278,1.19557 6.9828,3.26791 1.7581,2.07234 2.5643,4.83014 2.2077,7.55289 -0.013,0.0956 -1.6279,14.03771 5.3766,22.21229 3.7023,4.31366 9.3642,6.41151 17.3113,6.41151 5.6774,0 12.3688,-1.12226 19.9035,-3.3285 0.831,-0.24231 1.6868,-0.36665 2.5364,-0.36665 z"
                   inkscape:connector-curvature="0"
                   style="fill:#2fa4e7;fill-opacity:1;stroke-width:15.01293945;stroke-miterlimit:4;stroke-dasharray:none;marker-start:none" />
                <g
                   style="fill:#2fa4e7;fill-opacity:1"
                   transform="matrix(0.82423308,0,0,0.82423308,2843.1682,225.53861)"
                   id="g5493">
                  <g
                     style="fill:#2fa4e7;fill-opacity:1"
                     id="g5495">
                    <path
                       style="fill:#2fa4e7;fill-opacity:1"
                       inkscape:connector-curvature="0"
                       d="M 55.371,11.629 C 50.564,2.297 39.189,-0.737 29.715,1.926 32.189,11.377 40.123,19.087 50.383,19.115 47.042,22.383 46.915,25.467 50,28.366 52.844,21.549 59.319,14.102 65.624,10.298 64.322,8.627 63.02,6.957 61.718,5.286 59.367,7.205 57.275,9.303 55.371,11.629 z"
                       id="path5497" />
                  </g>
                  <path
                     style="fill:#2fa4e7;fill-opacity:1"
                     inkscape:connector-curvature="0"
                     d="m 75.599632,13.176315 c -9.305476,0 -16.705663,4.791407 -20.116017,12.305461 C 52.07326,17.966595 44.673073,13.176315 35.367597,13.176315 c -47.496936,0 -29.9637681,91.382845 12.359575,85.556491 3.633578,-0.500562 6.103689,-1.707996 7.756443,-3.431775 1.652753,1.723779 4.122864,2.931213 7.756442,3.431775 C 105.5634,104.55916 123.09657,13.176315 75.599632,13.176315 z M 32.071109,29.588857 c -7.941334,3.311144 -11.709071,12.46555 -8.397927,20.406884 0.649376,1.55918 -0.08681,3.348348 -1.644862,3.997725 -0.38444,0.160089 -0.783536,0.235624 -1.17474,0.235624 -1.197288,0 -2.333697,-0.708001 -2.822985,-1.880486 -4.608769,-11.05293 0.634721,-23.794691 11.687651,-28.402333 1.560308,-0.650504 3.348348,0.08568 3.997725,1.644862 0.649376,1.55918 -0.08681,3.348347 -1.644862,3.997724 z"
                     id="path5499" />
                </g>
                <path
                   style="fill:#2fa4e7;fill-opacity:1"
                   inkscape:connector-curvature="0"
                   d="m 2890,407.13697 c 12.3949,0 22.4828,-9.70129 22.4828,-21.62045 0,-11.92351 -10.0879,-21.62262 -22.4828,-21.62262 -12.3971,0 -22.485,9.69911 -22.485,21.62262 0,11.91916 10.0879,21.62045 22.485,21.62045 z m 0,-30.24865 c 5.2308,0 9.4862,3.86879 9.4862,8.6282 0,4.75506 -4.2554,8.62602 -9.4862,8.62602 -5.233,0 -9.4884,-3.86878 -9.4884,-8.62602 0,-4.75941 4.2533,-8.6282 9.4884,-8.6282 z"
                   id="path5572" />
                <path
                   id="path5750"
                   d="m 2790.3593,407.53774 c 12.3949,0 22.4828,-9.70129 22.4828,-21.62045 0,-11.92351 -10.0879,-21.62262 -22.4828,-21.62262 -12.3971,0 -22.485,9.69911 -22.485,21.62262 0,11.91916 10.0879,21.62045 22.485,21.62045 z m 0,-30.24865 c 5.2308,0 9.4862,3.86879 9.4862,8.6282 0,4.75506 -4.2554,8.62602 -9.4862,8.62602 -5.233,0 -9.4884,-3.86878 -9.4884,-8.62602 0,-4.75941 4.2533,-8.6282 9.4884,-8.6282 z"
                   inkscape:connector-curvature="0"
                   style="fill:#2fa4e7;fill-opacity:1" />
                <path
                   id="path5752"
                   d="m 2997.4579,407.13697 c 12.3949,0 22.4828,-9.70129 22.4828,-21.62045 0,-11.92351 -10.0879,-21.62262 -22.4828,-21.62262 -12.3971,0 -22.485,9.69911 -22.485,21.62262 0,11.91916 10.0879,21.62045 22.485,21.62045 z m 0,-30.24865 c 5.2308,0 9.4862,3.86879 9.4862,8.6282 0,4.75506 -4.2554,8.62602 -9.4862,8.62602 -5.233,0 -9.4884,-3.86878 -9.4884,-8.62602 0,-4.75941 4.2533,-8.6282 9.4884,-8.6282 z"
                   inkscape:connector-curvature="0"
                   style="fill:#2fa4e7;fill-opacity:1" />
              </g>
              <g
                 style="fill:#999999;fill-opacity:1"
                 transform="matrix(0.64505285,0,0,0.64505285,793.98195,953.8442)"
                 id="g5710">
                <circle
                   style="fill:#999999;fill-opacity:1"
                   d="m 26.277,8.1590004 c 0,4.5060916 -3.652908,8.1590006 -8.159,8.1590006 -4.506091,0 -8.1590004,-3.652909 -8.1590004,-8.1590006 C 9.9589996,3.6529089 13.611909,0 18.118,0 c 4.506092,0 8.159,3.6529089 8.159,8.1590004 z"
                   sodipodi:ry="8.1590004"
                   sodipodi:rx="8.1590004"
                   sodipodi:cy="8.1590004"
                   sodipodi:cx="18.118"
                   cx="18.118"
                   cy="8.1590004"
                   r="8.1590004"
                   id="circle5712" />
                <path
                   style="fill:#999999;fill-opacity:1"
                   inkscape:connector-curvature="0"
                   d="m 8.472,95.426 c 0,2.524 2.05,4.574 4.574,4.574 2.529,0 4.576,-2.05 4.576,-4.574 l 0.004,-38.374 h 2.037 L 19.65,95.426 c 0,2.524 2.048,4.574 4.574,4.574 2.526,0 4.573,-2.05 4.573,-4.574 l 0.02,-66.158 h 2.006 v 24.38 c 0,4.905 6.398,4.905 6.384,0 v -24.9 C 37.207,23.33 34.023,18.02 27.684,18.02 L 9.396,18.012 C 3.619,18.012 0,22.722 0,28.599 v 25.05 c 0,4.869 6.433,4.869 6.433,0 V 29.269 H 8.481 L 8.472,95.426 z"
                   id="path5714" />
              </g>
              <g
                 id="g5716"
                 transform="matrix(0.16126321,0,0,0.16126321,358.16106,888.83638)">
                <path
                   style="fill:#999999;fill-opacity:1"
                   inkscape:connector-curvature="0"
                   d="m 3172.1198,475.30444 c 22.7881,0 32.0322,18.78007 35.4842,29.1321 l 27.9961,92.03235 c 5.584,19.79607 -19.5961,27.9921 -25.6001,8.70003 l -25.1921,-84.50032 h -7.332 l 43.6641,150.31256 h -40.2281 v 117.18443 c 0,19.98408 -30.0561,19.88408 -30.0561,0 V 670.21316 h -12.2521 l 0.02,117.78843 c 0,20.14808 -30.1801,20.14808 -30.1801,0 l -0.01,-117.02043 h -40.3561 l 43.3241,-150.31256 h -6.776 l -25.1961,84.80032 c -6,18.48407 -31.4001,10.89604 -25.5841,-8.91203 l 27.9721,-92.12035 c 2.996,-10.50003 12.1801,-29.1321 35.1801,-29.1321 h 55.1202 z"
                   id="path5718" />
                <circle
                   style="fill:#999999;fill-opacity:1"
                   d="m 31.088999,8.1639996 c 0,4.5088524 -3.655147,8.1639994 -8.164,8.1639994 -4.508852,0 -8.163999,-3.655147 -8.163999,-8.1639994 C 14.761,3.6551471 18.416147,0 22.924999,0 c 4.508853,0 8.164,3.6551471 8.164,8.1639996 z"
                   sodipodi:ry="8.1639996"
                   sodipodi:rx="8.1639996"
                   sodipodi:cy="8.1639996"
                   sodipodi:cx="22.924999"
                   cx="22.924999"
                   cy="8.1639996"
                   r="8.1639996"
                   id="circle5720"
                   transform="matrix(4.0000148,0,0,4.0000148,3053.0194,403.11617)" />
              </g>
              <g
                 transform="matrix(0.16126321,0,0,0.16126321,327.1154,888.83638)"
                 id="g3087">
                <path
                   id="path3089"
                   d="m 3172.1198,475.30444 c 22.7881,0 32.0322,18.78007 35.4842,29.1321 l 27.9961,92.03235 c 5.584,19.79607 -19.5961,27.9921 -25.6001,8.70003 l -25.1921,-84.50032 h -7.332 l 43.6641,150.31256 h -40.2281 v 117.18443 c 0,19.98408 -30.0561,19.88408 -30.0561,0 V 670.21316 h -12.2521 l 0.02,117.78843 c 0,20.14808 -30.1801,20.14808 -30.1801,0 l -0.01,-117.02043 h -40.3561 l 43.3241,-150.31256 h -6.776 l -25.1961,84.80032 c -6,18.48407 -31.4001,10.89604 -25.5841,-8.91203 l 27.9721,-92.12035 c 2.996,-10.50003 12.1801,-29.1321 35.1801,-29.1321 h 55.1202 z"
                   inkscape:connector-curvature="0"
                   style="fill:#999999;fill-opacity:1" />
                <circle
                   transform="matrix(4.0000148,0,0,4.0000148,3053.0194,403.11617)"
                   id="circle3091"
                   r="8.1639996"
                   cy="8.1639996"
                   cx="22.924999"
                   sodipodi:cx="22.924999"
                   sodipodi:cy="8.1639996"
                   sodipodi:rx="8.1639996"
                   sodipodi:ry="8.1639996"
                   d="m 31.088999,8.1639996 c 0,4.5088524 -3.655147,8.1639994 -8.164,8.1639994 -4.508852,0 -8.163999,-3.655147 -8.163999,-8.1639994 C 14.761,3.6551471 18.416147,0 22.924999,0 c 4.508853,0 8.164,3.6551471 8.164,8.1639996 z"
                   style="fill:#999999;fill-opacity:1" />
              </g>
            </g>
            <g
               id="g3225">
              <g
                 id="g3287">
                <g
                   transform="matrix(0.16342458,0,0,0.16342458,81.38497,865.68769)"
                   id="g5754">
                  <g
                     id="g5657"
                     style="fill:#2fa4e7;fill-opacity:1"
                     transform="translate(-3052,131.02637)">
                    <path
                       id="path5087"
                       d="m 2554.3789,358.52397 c -26.9796,0 -51.3622,-13.5798 -62.0852,-20.52989 -33.5316,6.97647 -58.2404,2.74009 -73.3859,-12.08726 -10.9082,-10.68143 -13.7124,-24.36677 -14.2151,-33.63482 -20.0043,-6.17366 -46.4988,-24.05771 -46.4988,-50.10167 0,-35.25544 26.0272,-56.30167 69.6292,-56.30167 3.5803,0 6.9048,0.14691 9.8589,0.35427 6.0758,-15.2457 18.4964,-27.6571 37.0721,-36.99299 19.9205,-10.01429 39.1356,-15.0874 57.1205,-15.0874 28.9946,0 47.7423,12.89007 57.3719,22.00358 10.6701,-4.23264 21.0096,-6.36589 30.842,-6.36589 34.9821,0 52.6055,25.53138 59.3956,38.80966 40.5597,3.07553 58.1037,26.20603 60.8727,47.93445 3.0467,23.87299 -9.7751,46.84898 -29.6956,55.97004 -0.6614,12.15888 -5.1852,22.14304 -13.5052,29.76779 -11.1905,10.25175 -28.3994,15.44924 -51.155,15.44924 0,0 0,0 0,0 -14.5017,0 -28.364,-2.14458 -37.1735,-3.87456 -17.8659,20.19444 -39.1003,24.68712 -54.4442,24.68712 z m -58.9988,-44.16546 c 3.2143,0 6.3624,1.00633 8.8139,2.89085 0.2249,0.1696 24.8985,18.7283 50.1849,18.7283 15.119,0 27.4073,-6.85586 37.5571,-20.9558 3.1614,-4.38338 9.3959,-6.37343 15.1366,-4.85828 0.1764,0.0415 19.2504,4.99397 38.924,4.99397 l 0,0 c 10.41,0 24.3958,-1.43223 31.8737,-8.28433 4.9824,-4.56428 7.1164,-11.72168 6.3404,-21.27993 -0.4497,-5.56687 3.933,-10.5759 10.2998,-11.78576 12.0854,-2.29156 21.6224,-19.22956 19.6339,-34.84462 -1.3448,-10.50804 -8.8315,-28.13953 -43.9063,-28.17722 -5.8421,-0.007 -10.9876,-3.30168 -12.6322,-8.09212 -0.093,-0.2676 -11.0405,-30.3708 -37.513,-30.3708 -8.1614,0 -17.4867,2.66093 -27.7071,7.90366 -3.0335,1.5566 -6.6711,2.00134 -10.1014,1.24377 -3.4259,-0.75758 -6.3492,-2.66471 -8.1172,-5.28041 -0.5071,-0.72741 -13.9462,-19.5047 -42.2882,-19.5047 -13.2186,0 -27.9363,4.02908 -43.7519,11.98173 -16.1199,8.10341 -24.8765,18.25339 -27.544,31.93872 -0.5908,3.04914 -2.6323,5.75908 -5.6305,7.48905 -2.9982,1.72999 -6.7063,2.33304 -10.2336,1.66215 -0.04,-0.007 -7.3457,-1.33801 -16.887,-1.33801 -18.567,0 -43.2538,3.49765 -43.2538,33.7516 0,17.96317 27.0722,29.91853 33.5624,29.92607 3.8007,0.004 7.4339,1.41338 9.9294,3.86324 2.5,2.44987 3.6464,5.71007 3.1394,8.92884 -0.018,0.113 -2.3148,16.59503 7.6454,26.25882 5.2645,5.0995 13.3157,7.57952 24.6163,7.57952 8.0731,0 17.5881,-1.3267 28.3023,-3.93487 1.1817,-0.28645 2.3986,-0.43344 3.6067,-0.43344 z"
                       inkscape:connector-curvature="0"
                       style="fill:#2fa4e7;fill-opacity:1;stroke-width:15.01293945;stroke-miterlimit:4;stroke-dasharray:none;marker-start:none" />
                    <path
                       id="path5089"
                       d="m 2730.9076,378.8237 c -12.5684,0 -22.7975,-9.83709 -22.7975,-21.92309 0,-12.09041 10.2291,-21.92529 22.7975,-21.92529 12.5706,0 22.7998,9.83488 22.7998,21.92529 0,12.086 -10.2292,21.92309 -22.7998,21.92309 z m 0,-30.67206 c -5.304,0 -9.619,3.92294 -9.619,8.74897 0,4.82163 4.315,8.74677 9.619,8.74677 5.3062,0 9.6212,-3.92294 9.6212,-8.74677 0,-4.82603 -4.3128,-8.74897 -9.6212,-8.74897 z"
                       inkscape:connector-curvature="0"
                       style="fill:#2fa4e7;fill-opacity:1" />
                  </g>
                  <g
                     style="fill:#999999;fill-opacity:1"
                     id="g5509"
                     transform="translate(-2771.4239,155.84673)">
                    <g
                       style="fill:#999999;fill-opacity:1"
                       transform="matrix(0.82423308,0,0,0.82423308,2167.6883,180.30126)"
                       id="g4905">
                      <g
                         style="fill:#999999;fill-opacity:1"
                         id="g4893">
                        <path
                           style="fill:#999999;fill-opacity:1"
                           inkscape:connector-curvature="0"
                           d="M 55.371,11.629 C 50.564,2.297 39.189,-0.737 29.715,1.926 32.189,11.377 40.123,19.087 50.383,19.115 47.042,22.383 46.915,25.467 50,28.366 52.844,21.549 59.319,14.102 65.624,10.298 64.322,8.627 63.02,6.957 61.718,5.286 59.367,7.205 57.275,9.303 55.371,11.629 z"
                           id="path4895" />
                      </g>
                      <path
                         style="fill:#999999;fill-opacity:1"
                         inkscape:connector-curvature="0"
                         d="m 75.599632,13.176315 c -9.305476,0 -16.705663,4.791407 -20.116017,12.305461 C 52.07326,17.966595 44.673073,13.176315 35.367597,13.176315 c -47.496936,0 -29.9637681,91.382845 12.359575,85.556491 3.633578,-0.500562 6.103689,-1.707996 7.756443,-3.431775 1.652753,1.723779 4.122864,2.931213 7.756442,3.431775 C 105.5634,104.55916 123.09657,13.176315 75.599632,13.176315 z M 32.071109,29.588857 c -7.941334,3.311144 -11.709071,12.46555 -8.397927,20.406884 0.649376,1.55918 -0.08681,3.348348 -1.644862,3.997725 -0.38444,0.160089 -0.783536,0.235624 -1.17474,0.235624 -1.197288,0 -2.333697,-0.708001 -2.822985,-1.880486 -4.608769,-11.05293 0.634721,-23.794691 11.687651,-28.402333 1.560308,-0.650504 3.348348,0.08568 3.997725,1.644862 0.649376,1.55918 -0.08681,3.348347 -1.644862,3.997724 z"
                         id="path4897" />
                    </g>
                    <path
                       style="fill:#999999;fill-opacity:1;stroke:none"
                       d="m 2285.5543,261.1995 c -2.187,-1.27753 -0.9316,-6.83518 1.526,-7.43959 9.2749,-2.28025 31.6886,-7.39742 42.9197,-18.12206 9.1746,-8.75987 11.5882,-22.60178 16.4058,-34.33641 0.6648,-1.61859 1.6983,-3.21045 1.7176,-4.95972 0.047,-4.14218 -3.4052,-7.70519 -3.8171,-11.82712 -0.2781,-2.80194 -2.2155,-4.21634 0.9551,-8.39339 3.4797,-4.58552 5.2155,0.11556 6.6758,2.28912 0.894,1.32899 0.3932,3.17802 0.5734,4.76895 0.1352,1.20717 0.062,2.45339 0.3805,3.62442 0.765,2.76978 2.1904,5.33181 3.6257,7.82108 2.2098,3.83615 7.0829,6.4793 7.6289,10.87324 1.9152,15.3986 -6.2709,31.90814 -16.5949,43.49286 -9.5376,10.70124 -27.9529,19.51223 -38.1513,19.83897 -8.3162,0.26616 -16.3994,-3.27821 -23.8452,-7.63035 z"
                       id="path3861"
                       inkscape:connector-curvature="0"
                       sodipodi:nodetypes="ssaaaassaaaaass" />
                  </g>
                  <g
                     id="g5680"
                     style="fill:#2fa4e7;fill-opacity:1">
                    <g
                       id="g5676"
                       style="fill:#2fa4e7;fill-opacity:1"
                       transform="translate(-3052,131.02637)">
                      <path
                         id="path5459"
                         d="m 3388.5232,358.8042 c 26.6071,0 50.6531,-13.39233 61.2281,-20.24648 33.0687,6.88016 57.4365,2.70226 72.3728,-11.9204 10.7577,-10.53398 13.5232,-24.03039 14.0189,-33.1705 19.7281,-6.08844 45.857,-23.7256 45.857,-49.41003 0,-34.76876 -25.6679,-55.52445 -68.6681,-55.52445 -3.5308,0 -6.8094,0.14489 -9.7228,0.34938 -5.9919,-15.03523 -18.241,-27.2753 -36.5603,-36.48232 -19.6455,-9.87604 -38.5954,-14.87911 -56.332,-14.87911 -28.5943,0 -47.0832,12.71212 -56.5798,21.69982 -10.5229,-4.1742 -20.7196,-6.27801 -30.4163,-6.27801 -34.4992,0 -51.8793,25.17893 -58.5757,38.27391 -39.9998,3.03307 -57.3016,25.84426 -60.0323,47.27273 -3.0047,23.54343 9.6401,46.20224 29.2856,55.19739 0.6523,11.99103 5.1136,21.83736 13.3188,29.35685 11.036,10.11023 28.0073,15.23597 50.4488,15.23597 0,0 0,0 0,0 14.3015,0 27.9725,-2.11497 36.6604,-3.82107 17.6192,19.91566 38.5606,24.34632 53.6926,24.34632 z m 58.1843,-43.55577 c -3.1699,0 -6.2745,0.99244 -8.6922,2.85094 -0.2217,0.16727 -24.5547,18.46976 -49.4921,18.46976 -14.9103,0 -27.0289,-6.76121 -37.0387,-20.6665 -3.1177,-4.32287 -9.2662,-6.28545 -14.9276,-4.79121 -0.174,0.0409 -18.9846,4.92502 -38.3867,4.92502 l 0,0 c -10.2663,0 -24.059,-1.41246 -31.4337,-8.16996 -4.9135,-4.50128 -7.0181,-11.55987 -6.2528,-20.98617 0.4435,-5.49003 -3.8787,-10.42991 -10.1576,-11.62306 -11.9186,-2.25993 -21.324,-18.96411 -19.3629,-34.36361 1.3262,-10.36298 8.7096,-27.75107 43.3002,-27.78824 5.7615,-0.007 10.8359,-3.2561 12.4578,-7.98041 0.091,-0.2639 10.8881,-29.95154 36.9952,-29.95154 8.0487,0 17.2453,2.62419 27.3246,7.79455 2.9916,1.53511 6.5789,1.97371 9.9619,1.22661 3.3786,-0.74713 6.2615,-2.62793 8.0052,-5.20753 0.5,-0.71736 13.7536,-19.23544 41.7044,-19.23544 13.0361,0 27.5507,3.97346 43.148,11.81632 15.8973,7.99155 24.533,18.00141 27.1637,31.49782 0.5826,3.00705 2.5959,5.67958 5.5527,7.38567 2.9569,1.70611 6.6138,2.30083 10.0924,1.6392 0.039,-0.007 7.2442,-1.31953 16.6539,-1.31953 18.3106,0 42.6566,3.44936 42.6566,33.28567 0,17.71519 -26.6984,29.50551 -33.0991,29.51294 -3.7482,0.004 -7.3312,1.39387 -9.7923,3.80992 -2.4655,2.41605 -3.596,5.63124 -3.096,8.80558 0.017,0.11144 2.2829,16.36594 -7.5399,25.89632 -5.1918,5.0291 -13.1318,7.47489 -24.2765,7.47489 -7.9617,0 -17.3453,-1.30839 -27.9116,-3.88055 -1.1653,-0.28249 -2.3654,-0.42746 -3.5569,-0.42746 z"
                         inkscape:connector-curvature="0"
                         style="fill:#2fa4e7;fill-opacity:1;stroke-width:15.01293945;stroke-miterlimit:4;stroke-dasharray:none;marker-start:none" />
                      <path
                         id="path5461"
                         d="m 3206.6527,378.8237 c 12.3949,0 22.4828,-9.70129 22.4828,-21.62045 0,-11.9235 -10.0879,-21.62262 -22.4828,-21.62262 -12.3971,0 -22.485,9.69912 -22.485,21.62262 0,11.91916 10.0879,21.62045 22.485,21.62045 z m 0,-30.24864 c 5.2308,0 9.4862,3.86878 9.4862,8.62819 0,4.75507 -4.2554,8.62602 -9.4862,8.62602 -5.233,0 -9.4884,-3.86878 -9.4884,-8.62602 0,-4.75941 4.2533,-8.62819 9.4884,-8.62819 z"
                         inkscape:connector-curvature="0"
                         style="fill:#2fa4e7;fill-opacity:1" />
                    </g>
                    <g
                       transform="translate(-2990.4803,109.89907)"
                       id="g5516"
                       style="fill:#99999f;fill-opacity:0.94117647">
                      <path
                         id="path4990"
                         d="m 3394.1318,235.82963 c 4.898,-4.41099 14.4514,-10.06854 25.5294,-1.2074 0,0 -3.2257,-17.73726 -29.0239,-4.83758 l -3.226,-9.67531 -3.2249,9.67531 c -25.798,-12.89968 -29.0236,4.83758 -29.0236,4.83758 11.0779,-8.86114 20.6302,-3.20359 25.5267,1.2074 -11.3914,-0.32216 -33.2762,1.88738 -33.2762,23.69516 0,29.47428 30.3255,58.94495 39.9992,58.94495 11.2881,0 40.0005,-29.47067 40.0005,-58.94714 0,-21.80559 -21.8897,-24.01738 -33.2812,-23.69297 z m 4.0161,26.45979 c 0,1.87243 -1.5211,3.39391 -3.3958,3.39391 -1.8767,0 -3.3938,-1.52148 -3.3938,-3.39391 0,-1.876 1.5171,-3.39403 3.3938,-3.39403 1.8747,-8.7e-4 3.3958,1.51803 3.3958,3.39403 z m 0,14.93482 c 0,1.87589 -1.5211,3.39409 -3.3958,3.39409 -1.8767,0 -3.3938,-1.5182 -3.3938,-3.39409 0,-1.87589 1.5171,-3.39282 3.3938,-3.39282 1.8747,0 3.3958,1.51693 3.3958,3.39282 z m -18.3329,-18.33009 c 1.8759,0 3.3927,1.51927 3.3927,3.3941 0,1.87245 -1.518,3.39402 -3.3927,3.39402 -1.8759,0 -3.3951,-1.52157 -3.3951,-3.39402 0,-1.87483 1.5192,-3.3941 3.3951,-3.3941 z m 0,14.93727 c 1.8759,0 3.3927,1.51576 3.3927,3.39169 0,1.87586 -1.518,3.39522 -3.3927,3.39522 -1.8759,0 -3.3951,-1.51936 -3.3951,-3.39522 0,-1.87593 1.5192,-3.39169 3.3951,-3.39169 z m -19.6883,-11.542 c 0,-1.876 1.5179,-3.39403 3.3941,-3.39403 1.8732,0 3.3924,1.51925 3.3924,3.39403 0,1.87243 -1.5192,3.39391 -3.3924,3.39391 -1.8762,8.2e-4 -3.3941,-1.52148 -3.3941,-3.39391 z m 4.7515,18.32891 c -1.8773,0 -3.3941,-1.5182 -3.3941,-3.39409 0,-1.87589 1.5182,-3.39282 3.3941,-3.39282 1.8742,0 3.3947,1.51693 3.3947,3.39282 0,1.87589 -1.5218,3.39409 -3.3947,3.39409 z m 6.7893,6.78922 c -1.8744,0 -3.3944,-1.51703 -3.3944,-3.39295 0,-1.87588 1.52,-3.39407 3.3944,-3.39407 1.8744,0 3.3938,1.51819 3.3938,3.39407 0,1.87592 -1.5205,3.39295 -3.3938,3.39295 z m 0,-14.93498 c -1.8744,0 -3.3944,-1.51926 -3.3944,-3.39394 0,-1.87599 1.52,-3.39175 3.3944,-3.39175 1.8744,0 3.3938,1.51688 3.3938,3.39175 0,1.87468 -1.5205,3.39394 -3.3938,3.39394 z m 0,-14.93599 c -1.8744,0 -3.3944,-1.52043 -3.3944,-3.39404 0,-1.87587 1.52,-3.39402 3.3944,-3.39402 1.8744,0 3.3938,1.51815 3.3938,3.39402 0,1.87361 -1.5205,3.39404 -3.3938,3.39404 z m 8.1475,38.01772 c -1.8759,0 -3.3951,-1.51702 -3.3951,-3.39507 0,-1.87374 1.5192,-3.39176 3.3951,-3.39176 1.8759,0 3.3927,1.51802 3.3927,3.39176 0,1.87805 -1.5168,3.39507 -3.3927,3.39507 z m 6.7896,6.79035 c -1.8727,0 -3.3943,-1.51815 -3.3943,-3.39518 0,-1.87361 1.5216,-3.39289 3.3943,-3.39289 1.8761,0 3.3954,1.51928 3.3954,3.39289 0,1.87703 -1.5193,3.39518 -3.3954,3.39518 z m 0,-14.9371 c -1.8727,0 -3.3943,-1.51703 -3.3943,-3.39295 0,-1.87588 1.5216,-3.39407 3.3943,-3.39407 1.8761,0 3.3954,1.51819 3.3954,3.39407 0,1.87592 -1.5193,3.39295 -3.3954,3.39295 z m 0,-14.93498 c -1.8727,0 -3.3943,-1.51926 -3.3943,-3.39394 0,-1.87599 1.5216,-3.39175 3.3943,-3.39175 1.8761,0 3.3954,1.51688 3.3954,3.39175 0,1.87468 -1.5193,3.39394 -3.3954,3.39394 z m 0,-14.93599 c -1.8727,0 -3.3943,-1.52043 -3.3943,-3.39404 0,-1.87587 1.5216,-3.39402 3.3943,-3.39402 1.8761,0 3.3954,1.51815 3.3954,3.39402 0,1.87361 -1.5193,3.39404 -3.3954,3.39404 z m 8.1475,38.01772 c -1.8767,0 -3.3938,-1.51702 -3.3938,-3.39507 0,-1.87374 1.5171,-3.39176 3.3938,-3.39176 1.8747,0 3.3958,1.51802 3.3958,3.39176 0,1.87805 -1.5211,3.39507 -3.3958,3.39507 z m 6.7897,-8.14675 c -1.8766,0 -3.3926,-1.51703 -3.3926,-3.39295 0,-1.87588 1.516,-3.39407 3.3926,-3.39407 1.8747,0 3.3964,1.51819 3.3964,3.39407 0,1.87592 -1.5217,3.39295 -3.3964,3.39295 z m 0,-14.93498 c -1.8766,0 -3.3926,-1.51926 -3.3926,-3.39394 0,-1.87599 1.516,-3.39175 3.3926,-3.39175 1.8747,0 3.3964,1.51688 3.3964,3.39175 0,1.87468 -1.5217,3.39394 -3.3964,3.39394 z m 0,-14.93599 c -1.8766,0 -3.3926,-1.52043 -3.3926,-3.39404 0,-1.87587 1.516,-3.39402 3.3926,-3.39402 1.8747,0 3.3964,1.51815 3.3964,3.39402 0,1.87361 -1.5217,3.39404 -3.3964,3.39404 z m 8.1491,23.08175 c -1.8785,0 -3.3953,-1.5182 -3.3953,-3.39409 0,-1.87589 1.5168,-3.39282 3.3953,-3.39282 1.8727,0 3.3908,1.51693 3.3908,3.39282 0,1.87589 -1.5192,3.39409 -3.3908,3.39409 z m 0,-14.93384 c -1.8785,0 -3.3953,-1.52158 -3.3953,-3.39396 0,-1.87471 1.5168,-3.39402 3.3953,-3.39402 1.8727,0 3.3908,1.51931 3.3908,3.39402 0,1.87132 -1.5192,3.39396 -3.3908,3.39396 z"
                         inkscape:connector-curvature="0"
                         style="fill:#99999f;fill-opacity:0.94117647" />
                      <g
                         id="g5501"
                         transform="matrix(0.82423308,0,0,0.82423308,3230.4878,232.9344)"
                         style="fill:#99999f;fill-opacity:0.94117647">
                        <g
                           id="g5503"
                           style="fill:#99999f;fill-opacity:0.94117647">
                          <path
                             id="path5505"
                             d="M 55.371,11.629 C 50.564,2.297 39.189,-0.737 29.715,1.926 32.189,11.377 40.123,19.087 50.383,19.115 47.042,22.383 46.915,25.467 50,28.366 52.844,21.549 59.319,14.102 65.624,10.298 64.322,8.627 63.02,6.957 61.718,5.286 59.367,7.205 57.275,9.303 55.371,11.629 z"
                             inkscape:connector-curvature="0"
                             style="fill:#99999f;fill-opacity:0.94117647" />
                        </g>
                        <path
                           id="path5507"
                           d="m 75.599632,13.176315 c -9.305476,0 -16.705663,4.791407 -20.116017,12.305461 C 52.07326,17.966595 44.673073,13.176315 35.367597,13.176315 c -47.496936,0 -29.9637681,91.382845 12.359575,85.556491 3.633578,-0.500562 6.103689,-1.707996 7.756443,-3.431775 1.652753,1.723779 4.122864,2.931213 7.756442,3.431775 C 105.5634,104.55916 123.09657,13.176315 75.599632,13.176315 z M 32.071109,29.588857 c -7.941334,3.311144 -11.709071,12.46555 -8.397927,20.406884 0.649376,1.55918 -0.08681,3.348348 -1.644862,3.997725 -0.38444,0.160089 -0.783536,0.235624 -1.17474,0.235624 -1.197288,0 -2.333697,-0.708001 -2.822985,-1.880486 -4.608769,-11.05293 0.634721,-23.794691 11.687651,-28.402333 1.560308,-0.650504 3.348348,0.08568 3.997725,1.644862 0.649376,1.55918 -0.08681,3.348347 -1.644862,3.997724 z"
                           inkscape:connector-curvature="0"
                           style="fill:#99999f;fill-opacity:0.94117647" />
                      </g>
                    </g>
                  </g>
                  <g
                     id="g5665"
                     style="fill:#999999;fill-opacity:1"
                     transform="translate(-3052,131.02637)">
                    <g
                       id="g5661"
                       style="fill:#2fa4e7;fill-opacity:1">
                      <path
                         id="path5605"
                         d="m 2972.5043,318.52397 c -26.9796,0 -51.3622,-13.5798 -62.0852,-20.52989 -33.5316,6.97647 -58.2404,2.74009 -73.3859,-12.08726 -10.9082,-10.68143 -13.7124,-24.36677 -14.2151,-33.63482 -20.0043,-6.17366 -46.4988,-24.05771 -46.4988,-50.10167 0,-35.25544 26.0272,-56.30167 69.6292,-56.30167 3.5803,0 6.9048,0.14691 9.8589,0.35427 6.0758,-15.2457 18.4964,-27.6571 37.0721,-36.99299 C 2912.8,99.215648 2932.0151,94.142545 2950,94.142545 c 28.9946,0 47.7423,12.890065 57.3719,22.003575 10.6701,-4.23264 21.0096,-6.36589 30.842,-6.36589 34.9821,0 52.6055,25.53138 59.3956,38.80966 40.5597,3.07553 58.1037,26.20603 60.8727,47.93445 3.0467,23.87299 -9.7751,46.84898 -29.6956,55.97004 -0.6614,12.15888 -5.1852,22.14304 -13.5052,29.76779 -11.1905,10.25175 -28.3994,15.44924 -51.155,15.44924 0,0 0,0 0,0 -14.5017,0 -28.364,-2.14458 -37.1735,-3.87456 -17.8659,20.19444 -39.1003,24.68712 -54.4442,24.68712 z m -58.9988,-44.16546 c 3.2143,0 6.3624,1.00633 8.8139,2.89085 0.2249,0.1696 24.8985,18.7283 50.1849,18.7283 15.119,0 27.4073,-6.85586 37.5571,-20.9558 3.1614,-4.38338 9.3959,-6.37343 15.1366,-4.85828 0.1764,0.0415 19.2504,4.99397 38.924,4.99397 l 0,0 c 10.41,0 24.3958,-1.43223 31.8737,-8.28433 4.9824,-4.56428 7.1164,-11.72168 6.3404,-21.27993 -0.4497,-5.56687 3.933,-10.5759 10.2998,-11.78576 12.0854,-2.29156 21.6224,-19.22956 19.6339,-34.84462 -1.3448,-10.50804 -8.8315,-28.13953 -43.9063,-28.17722 -5.8421,-0.007 -10.9876,-3.30168 -12.6322,-8.09212 -0.093,-0.2676 -11.0405,-30.3708 -37.513,-30.3708 -8.1614,0 -17.4867,2.66093 -27.7071,7.90366 -3.0335,1.5566 -6.6711,2.00134 -10.1014,1.24377 -3.4259,-0.75758 -6.3492,-2.66471 -8.1172,-5.28041 -0.5071,-0.72741 -13.9462,-19.5047 -42.2882,-19.5047 -13.2186,0 -27.9363,4.02908 -43.7519,11.98173 -16.1199,8.10341 -24.8765,18.25339 -27.544,31.93872 -0.5908,3.04914 -2.6323,5.75908 -5.6305,7.48905 -2.9982,1.72999 -6.7063,2.33304 -10.2336,1.66215 -0.04,-0.007 -7.3457,-1.33801 -16.887,-1.33801 -18.567,0 -43.2538,3.49765 -43.2538,33.7516 0,17.96317 27.0722,29.91853 33.5624,29.92607 3.8007,0.004 7.4339,1.41338 9.9294,3.86324 2.5,2.44987 3.6464,5.71007 3.1394,8.92884 -0.018,0.113 -2.3148,16.59503 7.6454,26.25882 5.2645,5.0995 13.3157,7.57952 24.6163,7.57952 8.0731,0 17.5881,-1.3267 28.3023,-3.93487 1.1817,-0.28645 2.3986,-0.43344 3.6067,-0.43344 z"
                         inkscape:connector-curvature="0"
                         style="fill:#2fa4e7;fill-opacity:1;stroke-width:15.01293945;stroke-miterlimit:4;stroke-dasharray:none;marker-start:none" />
                      <path
                         id="path5607"
                         d="m 2968.9365,378.8237 c -12.5684,0 -22.7976,-9.83709 -22.7976,-21.92309 0,-12.09041 10.2292,-21.92529 22.7976,-21.92529 12.5706,0 22.7997,9.83488 22.7997,21.92529 0,12.086 -10.2291,21.92309 -22.7997,21.92309 z m 0,-30.67206 c -5.304,0 -9.619,3.92294 -9.619,8.74897 0,4.82162 4.315,8.74677 9.619,8.74677 5.3062,0 9.6212,-3.92294 9.6212,-8.74677 0,-4.82603 -4.3128,-8.74897 -9.6212,-8.74897 z"
                         inkscape:connector-curvature="0"
                         style="fill:#2fa4e7;fill-opacity:1" />
                    </g>
                    <g
                       style="fill:#999999;fill-opacity:1"
                       id="g5609"
                       transform="translate(698.70145,-15.17964)">
                      <g
                         style="fill:#999999;fill-opacity:1"
                         transform="matrix(0.82423308,0,0,0.82423308,2167.6883,180.30126)"
                         id="g5611">
                        <g
                           style="fill:#999999;fill-opacity:1"
                           id="g5613">
                          <path
                             style="fill:#999999;fill-opacity:1"
                             inkscape:connector-curvature="0"
                             d="M 55.371,11.629 C 50.564,2.297 39.189,-0.737 29.715,1.926 32.189,11.377 40.123,19.087 50.383,19.115 47.042,22.383 46.915,25.467 50,28.366 52.844,21.549 59.319,14.102 65.624,10.298 64.322,8.627 63.02,6.957 61.718,5.286 59.367,7.205 57.275,9.303 55.371,11.629 z"
                             id="path5615" />
                        </g>
                        <path
                           style="fill:#999999;fill-opacity:1"
                           inkscape:connector-curvature="0"
                           d="m 75.599632,13.176315 c -9.305476,0 -16.705663,4.791407 -20.116017,12.305461 C 52.07326,17.966595 44.673073,13.176315 35.367597,13.176315 c -47.496936,0 -29.9637681,91.382845 12.359575,85.556491 3.633578,-0.500562 6.103689,-1.707996 7.756443,-3.431775 1.652753,1.723779 4.122864,2.931213 7.756442,3.431775 C 105.5634,104.55916 123.09657,13.176315 75.599632,13.176315 z M 32.071109,29.588857 c -7.941334,3.311144 -11.709071,12.46555 -8.397927,20.406884 0.649376,1.55918 -0.08681,3.348348 -1.644862,3.997725 -0.38444,0.160089 -0.783536,0.235624 -1.17474,0.235624 -1.197288,0 -2.333697,-0.708001 -2.822985,-1.880486 -4.608769,-11.05293 0.634721,-23.794691 11.687651,-28.402333 1.560308,-0.650504 3.348348,0.08568 3.997725,1.644862 0.649376,1.55918 -0.08681,3.348347 -1.644862,3.997724 z"
                           id="path5617" />
                      </g>
                      <path
                         style="fill:#999999;fill-opacity:1;stroke:none"
                         d="m 2285.5543,261.1995 c -2.187,-1.27753 -0.9316,-6.83518 1.526,-7.43959 9.2749,-2.28025 31.6886,-7.39742 42.9197,-18.12206 9.1746,-8.75987 11.5882,-22.60178 16.4058,-34.33641 0.6648,-1.61859 1.6983,-3.21045 1.7176,-4.95972 0.047,-4.14218 -3.4052,-7.70519 -3.8171,-11.82712 -0.2781,-2.80194 -2.2155,-4.21634 0.9551,-8.39339 3.4797,-4.58552 5.2155,0.11556 6.6758,2.28912 0.894,1.32899 0.3932,3.17802 0.5734,4.76895 0.1352,1.20717 0.062,2.45339 0.3805,3.62442 0.765,2.76978 2.1904,5.33181 3.6257,7.82108 2.2098,3.83615 7.0829,6.4793 7.6289,10.87324 1.9152,15.3986 -6.2709,31.90814 -16.5949,43.49286 -9.5376,10.70124 -27.9529,19.51223 -38.1513,19.83897 -8.3162,0.26616 -16.3994,-3.27821 -23.8452,-7.63035 z"
                         id="path5619"
                         inkscape:connector-curvature="0"
                         sodipodi:nodetypes="ssaaaassaaaaass" />
                    </g>
                  </g>
                </g>
                <g
                   transform="translate(-23.163082,0)"
                   id="g3214">
                  <g
                     id="g3093"
                     transform="matrix(0.64505285,0,0,0.64505285,49.999996,953.8442)"
                     style="fill:#999999;fill-opacity:1">
                    <circle
                       id="circle3095"
                       r="8.1590004"
                       cy="8.1590004"
                       cx="18.118"
                       sodipodi:cx="18.118"
                       sodipodi:cy="8.1590004"
                       sodipodi:rx="8.1590004"
                       sodipodi:ry="8.1590004"
                       d="m 26.277,8.1590004 c 0,4.5060916 -3.652908,8.1590006 -8.159,8.1590006 -4.506091,0 -8.1590004,-3.652909 -8.1590004,-8.1590006 C 9.9589996,3.6529089 13.611909,0 18.118,0 c 4.506092,0 8.159,3.6529089 8.159,8.1590004 z"
                       style="fill:#999999;fill-opacity:1" />
                    <path
                       id="path3097"
                       d="m 8.472,95.426 c 0,2.524 2.05,4.574 4.574,4.574 2.529,0 4.576,-2.05 4.576,-4.574 l 0.004,-38.374 h 2.037 L 19.65,95.426 c 0,2.524 2.048,4.574 4.574,4.574 2.526,0 4.573,-2.05 4.573,-4.574 l 0.02,-66.158 h 2.006 v 24.38 c 0,4.905 6.398,4.905 6.384,0 v -24.9 C 37.207,23.33 34.023,18.02 27.684,18.02 L 9.396,18.012 C 3.619,18.012 0,22.722 0,28.599 v 25.05 c 0,4.869 6.433,4.869 6.433,0 V 29.269 H 8.481 L 8.472,95.426 z"
                       inkscape:connector-curvature="0"
                       style="fill:#999999;fill-opacity:1" />
                  </g>
                  <g
                     transform="matrix(0.16126321,0,0,0.16126321,-385.8207,888.83638)"
                     id="g3099">
                    <path
                       id="path3101"
                       d="m 3172.1198,475.30444 c 22.7881,0 32.0322,18.78007 35.4842,29.1321 l 27.9961,92.03235 c 5.584,19.79607 -19.5961,27.9921 -25.6001,8.70003 l -25.1921,-84.50032 h -7.332 l 43.6641,150.31256 h -40.2281 v 117.18443 c 0,19.98408 -30.0561,19.88408 -30.0561,0 V 670.21316 h -12.2521 l 0.02,117.78843 c 0,20.14808 -30.1801,20.14808 -30.1801,0 l -0.01,-117.02043 h -40.3561 l 43.3241,-150.31256 h -6.776 l -25.1961,84.80032 c -6,18.48407 -31.4001,10.89604 -25.5841,-8.91203 l 27.9721,-92.12035 c 2.996,-10.50003 12.1801,-29.1321 35.1801,-29.1321 h 55.1202 z"
                       inkscape:connector-curvature="0"
                       style="fill:#999999;fill-opacity:1" />
                    <circle
                       transform="matrix(4.0000148,0,0,4.0000148,3053.0194,403.11617)"
                       id="circle3103"
                       r="8.1639996"
                       cy="8.1639996"
                       cx="22.924999"
                       sodipodi:cx="22.924999"
                       sodipodi:cy="8.1639996"
                       sodipodi:rx="8.1639996"
                       sodipodi:ry="8.1639996"
                       d="m 31.088999,8.1639996 c 0,4.5088524 -3.655147,8.1639994 -8.164,8.1639994 -4.508852,0 -8.163999,-3.655147 -8.163999,-8.1639994 C 14.761,3.6551471 18.416147,0 22.924999,0 c 4.508853,0 8.164,3.6551471 8.164,8.1639996 z"
                       style="fill:#999999;fill-opacity:1" />
                  </g>
                  <g
                     id="g3105"
                     transform="matrix(0.16126321,0,0,0.16126321,-416.86613,888.83638)">
                    <path
                       style="fill:#999999;fill-opacity:1"
                       inkscape:connector-curvature="0"
                       d="m 3172.1198,475.30444 c 22.7881,0 32.0322,18.78007 35.4842,29.1321 l 27.9961,92.03235 c 5.584,19.79607 -19.5961,27.9921 -25.6001,8.70003 l -25.1921,-84.50032 h -7.332 l 43.6641,150.31256 h -40.2281 v 117.18443 c 0,19.98408 -30.0561,19.88408 -30.0561,0 V 670.21316 h -12.2521 l 0.02,117.78843 c 0,20.14808 -30.1801,20.14808 -30.1801,0 l -0.01,-117.02043 h -40.3561 l 43.3241,-150.31256 h -6.776 l -25.1961,84.80032 c -6,18.48407 -31.4001,10.89604 -25.5841,-8.91203 l 27.9721,-92.12035 c 2.996,-10.50003 12.1801,-29.1321 35.1801,-29.1321 h 55.1202 z"
                       id="path3107" />
                    <circle
                       style="fill:#999999;fill-opacity:1"
                       d="m 31.088999,8.1639996 c 0,4.5088524 -3.655147,8.1639994 -8.164,8.1639994 -4.508852,0 -8.163999,-3.655147 -8.163999,-8.1639994 C 14.761,3.6551471 18.416147,0 22.924999,0 c 4.508853,0 8.164,3.6551471 8.164,8.1639996 z"
                       sodipodi:ry="8.1639996"
                       sodipodi:rx="8.1639996"
                       sodipodi:cy="8.1639996"
                       sodipodi:cx="22.924999"
                       cx="22.924999"
                       cy="8.1639996"
                       r="8.1639996"
                       id="circle3109"
                       transform="matrix(4.0000148,0,0,4.0000148,3053.0194,403.11617)" />
                  </g>
                </g>
              </g>
            </g>
            <text
               sodipodi:linespacing="0%"
               id="text5844"
               y="1062.77"
               x="26.006836"
               style="font-size:34px;font-style:normal;font-weight:normal;line-height:0%;letter-spacing:0px;word-spacing:0px;fill:#000000;fill-opacity:1;stroke:none;font-family:Sans"
               xml:space="preserve"><tspan
                 style="font-size:34px;font-style:normal;font-variant:normal;font-weight:normal;font-stretch:normal;fill:#999999;fill-opacity:1;font-family:Caviar Dreams;-inkscape-font-specification:Caviar Dreams"
                 y="1062.77"
                 x="26.006836"
                 id="tspan5846"
                 sodipodi:role="line">A powerful &amp; user-friendly preference aggregation tool</tspan></text>
          </g>
        </g>
      </g>
    </g>
  </g>
</svg>
