<?xml version="1.0" encoding="UTF-8" standalone="no"?>
<!-- Created with Inkscape (http://www.inkscape.org/) -->

<svg
   xmlns:dc="http://purl.org/dc/elements/1.1/"
   xmlns:cc="http://creativecommons.org/ns#"
   xmlns:rdf="http://www.w3.org/1999/02/22-rdf-syntax-ns#"
   xmlns:svg="http://www.w3.org/2000/svg"
   xmlns="http://www.w3.org/2000/svg"
   xmlns:sodipodi="http://sodipodi.sourceforge.net/DTD/sodipodi-0.dtd"
   xmlns:inkscape="http://www.inkscape.org/namespaces/inkscape"
   version="1.1"
   width="200"
   height="200"
   viewBox="0 0 200 200"
   id="Layer_1"
   xml:space="preserve"
   inkscape:version="0.48.2 r9819"
   sodipodi:docname="input_dicot.svg"><sodipodi:namedview
   pagecolor="#ffffff"
   bordercolor="#666666"
   borderopacity="1"
   objecttolerance="10"
   gridtolerance="10"
   guidetolerance="10"
   inkscape:pageopacity="0"
   inkscape:pageshadow="2"
   inkscape:window-width="1280"
   inkscape:window-height="752"
   id="namedview3029"
   showgrid="false"
   inkscape:zoom="2.36"
   inkscape:cx="-3.6271187e-06"
   inkscape:cy="33.050847"
   inkscape:window-x="0"
   inkscape:window-y="0"
   inkscape:window-maximized="1"
   inkscape:current-layer="Layer_1" /><metadata
   id="metadata13"><rdf:RDF><cc:Work
       rdf:about=""><dc:format>image/svg+xml</dc:format><dc:type
         rdf:resource="http://purl.org/dc/dcmitype/StillImage" /><dc:title></dc:title></cc:Work></rdf:RDF></metadata><defs
   id="defs11" />
<g
   inkscape:groupmode="layer"
   id="layer5"
   inkscape:label="Layer2"
   transform="translate(0,100)" />
<rect
   style="fill:#2fa4e7;fill-opacity:1;fill-rule:evenodd;stroke:none"
   id="rect4417"
   width="200"
   height="200"
   x="0"
   y="0" /><g
   inkscape:groupmode="layer"
   id="layer4"
   inkscape:label="Layer1"
   transform="translate(0,100)" /><g
   transform="matrix(0.88458932,0,0,1.0001365,100.85068,54.996004)"
   id="g4929">
	<g
   id="g4931">
		
	<path
   inkscape:connector-curvature="0"
   style="fill:#ffffff;fill-opacity:1;fill-rule:evenodd;stroke:#ffffff;stroke-width:1.40043521;stroke-linecap:square;stroke-linejoin:round;stroke-miterlimit:4;stroke-opacity:1;stroke-dasharray:none"
   id="path4937"
   d="m -85.029348,88.076996 0,-28.148747 12.35884,-0.0038 12.358841,-0.0038 2.660826,-2.953368 c 7.2911,-8.092708 12.249661,-14.407428 14.664929,-18.675765 0.917013,-1.620574 1.966871,-4.107398 2.781508,-6.588624 0.772546,-2.353027 1.306492,-3.304131 2.091188,-3.724967 1.006154,-0.539607 1.887707,-0.201162 3.47994,1.336017 1.909448,1.843422 3.613057,4.882969 4.089229,7.295918 0.393587,1.994461 -0.557471,6.658333 -2.199175,10.784484 -1.481296,3.722993 -4.098375,8.453453 -6.292609,11.374109 -0.417703,0.555988 -0.759461,1.04439 -0.759461,1.085337 0,0.04095 0.630921,0.07445 1.402047,0.07445 l 1.402046,0 -0.613696,0.753454 c -0.742755,0.911901 -1.236274,1.923745 -1.65557,3.394353 -0.419238,1.470407 -0.444389,4.151116 -0.05174,5.515196 0.347244,1.206351 0.953831,2.405344 1.551692,3.067104 l 0.486083,0.538036 -1.088147,0.06299 c -2.429854,0.140663 -4.24495,1.68661 -5.191473,4.421666 -0.650745,1.880382 -0.650745,4.627073 0,6.507455 0.935734,2.703879 2.735847,4.245797 5.149931,4.411263 l 1.126255,0.0772 -0.484366,0.536135 c -0.612405,0.677859 -1.241378,1.917871 -1.560449,3.076402 -0.334046,1.212903 -0.336474,3.911598 -0.0046,5.160296 0.866329,3.26004 3.050506,5.19173 5.870327,5.19173 l 0.825757,0 -0.510138,0.59518 c -1.166693,1.3612 -1.788962,3.32797 -1.783416,5.63675 0.0061,2.54149 0.681705,4.81271 1.940069,6.52208 l 0.618012,0.83951 -11.521712,-0.0427 c -10.544353,-0.0391 -11.59299,-0.0638 -12.361973,-0.29105 -1.129149,-0.33368 -2.612448,-1.02682 -3.408429,-1.59274 -0.358566,-0.25493 -0.699403,-0.46351 -0.757418,-0.46351 -0.05801,0 -0.105481,0.53566 -0.105481,1.19037 l 0,1.19037 -12.253807,0 -12.253808,0 0,-28.148749 z m 20.446353,0 0,-24.087485 -8.192545,0 -8.192546,0 0,24.087485 0,24.087484 8.192546,0 8.192545,0 0,-24.087484 z" /><path
   inkscape:connector-curvature="0"
   style="fill:#ffffff;fill-opacity:1;fill-rule:evenodd;stroke:#ffffff;stroke-width:1.40043521;stroke-linecap:square;stroke-linejoin:round;stroke-miterlimit:4;stroke-opacity:1;stroke-dasharray:none"
   id="path4939"
   d="m -32.75382,73.23316 c -2.077313,-0.310296 -3.613993,-2.185055 -4.067965,-4.962939 -0.201153,-1.230873 -0.2001,-1.460464 0.01273,-2.776264 0.399762,-2.471478 1.559653,-4.390136 3.117506,-5.156884 l 0.688366,-0.338802 11.728466,-0.03811 c 12.9230249,-0.04199 12.6773283,-0.05603 14.419908,0.823625 1.0179007,0.513835 2.4507531,1.884113 2.9086114,2.781588 0.6335863,1.241932 0.8423057,2.092231 0.8423057,3.431458 0,2.7023 -1.0992561,5.133381 -2.7108853,5.995307 l -0.5801373,0.310268 -12.8139815,0.01997 c -7.04769,0.01098 -13.142907,-0.02916 -13.544925,-0.08921 z" /><path
   inkscape:connector-curvature="0"
   style="fill:#ffffff;fill-opacity:1;fill-rule:evenodd;stroke:#ffffff;stroke-width:1.40043521;stroke-linecap:square;stroke-linejoin:round;stroke-miterlimit:4;stroke-opacity:1;stroke-dasharray:none"
   id="path4941"
   d="m -38.048634,87.014318 c -1.314296,-0.466722 -2.594571,-2.097271 -3.078124,-3.920274 -0.282485,-1.064977 -0.285291,-3.243098 -0.0055,-4.297284 0.450752,-1.698537 1.502431,-3.179853 2.653021,-3.736844 0.588248,-0.284765 0.735043,-0.287054 18.409888,-0.287054 17.3174253,0 17.8317463,0.0076 18.3460491,0.269945 1.51544314,0.773122 2.8279884,3.530681 2.8183184,5.921076 -0.00928,2.296182 -1.33953866,4.911496 -2.9753478,5.849633 l -0.7333742,0.42059 -17.4354175,-0.0097 c -14.746356,-0.0082 -17.522413,-0.04063 -17.999478,-0.210046 z" /><path
   inkscape:connector-curvature="0"
   style="fill:#ffffff;fill-opacity:1;fill-rule:evenodd;stroke:#ffffff;stroke-width:1.40043521;stroke-linecap:square;stroke-linejoin:round;stroke-miterlimit:4;stroke-opacity:1;stroke-dasharray:none"
   id="path4943"
   d="m -33.369776,101.04775 c -2.229695,-0.79679 -3.538269,-3.081861 -3.538269,-6.178644 0,-2.813144 1.156177,-5.026135 3.087956,-5.910533 l 0.725276,-0.332043 13.419972,0.04033 13.419971,0.04033 0.7002176,0.322271 c 0.7608872,0.350194 1.529348,1.014298 1.8147637,1.568316 0.3943037,0.76538 0.6354083,2.210084 0.6457575,3.869379 0.011918,1.910387 -0.2040378,2.971238 -0.8777634,4.311968 -0.5887023,1.171534 -0.8972098,1.579846 -1.5521513,2.054286 l -0.5627831,0.40767 -13.388155,-0.006 c -10.579738,-0.005 -13.494431,-0.0441 -13.894792,-0.18719 z" /><path
   inkscape:connector-curvature="0"
   style="fill:#ffffff;fill-opacity:1;fill-rule:evenodd;stroke:#ffffff;stroke-width:1.40043521;stroke-linecap:square;stroke-linejoin:round;stroke-miterlimit:4;stroke-opacity:1;stroke-dasharray:none"
   id="path4945"
   d="m -23.690288,116.23862 c -5.257783,-0.0902 -5.12151,-0.0692 -6.169461,-0.951 -0.683578,-0.57519 -1.463931,-1.86931 -1.909243,-3.16623 -0.358485,-1.04405 -0.393929,-1.32368 -0.393929,-3.10789 0,-1.81158 0.03055,-2.04364 0.401914,-3.05303 0.489502,-1.3305 1.479818,-2.4969 2.538575,-2.98994 l 0.700643,-0.32627 8.75272,-0.001 8.752719,-0.001 0.840951,0.39784 c 1.5500404,0.7333 2.92729,2.68276 3.3696552,4.76965 0.2538037,1.19734 0.2506779,1.99977 -0.011806,3.03042 -0.6322867,2.48267 -2.3613788,4.32801 -4.8289952,5.15365 -0.921666,0.30838 -4.326688,0.37774 -12.043743,0.24532 z" /><path
   inkscape:connector-curvature="0"
   style="fill:#ffffff;fill-opacity:1;fill-rule:evenodd;stroke:#ffffff;stroke-width:1.40043521;stroke-linecap:square;stroke-linejoin:round;stroke-miterlimit:4;stroke-opacity:1;stroke-dasharray:none"
   id="path4947"
   d="M 6.133877,29.742233 C 4.92989,29.384349 4.04663,28.837182 3.071135,27.84491 1.322421,26.066119 0.704802,23.795226 1.254968,21.167137 1.67205,19.174777 2.678185,17.588674 3.900201,16.997106 4.497789,16.707819 4.581536,16.7063 17.860638,16.743847 l 13.359244,0.03777 0.657486,0.323854 c 2.926571,1.441519 3.946127,6.163897 2.164776,10.026809 -0.414121,0.898034 -1.494689,2.10318 -2.246323,2.505303 l -0.575939,0.308125 -12.113764,0.02585 C 7.750017,29.995788 6.93866,29.981458 6.133877,29.742228 z" /><path
   inkscape:connector-curvature="0"
   style="fill:#ffffff;fill-opacity:1;fill-rule:evenodd;stroke:#ffffff;stroke-width:1.40043521;stroke-linecap:square;stroke-linejoin:round;stroke-miterlimit:4;stroke-opacity:1;stroke-dasharray:none"
   id="path4949"
   d="M 0.0602,15.128077 C -0.6175031,14.914468 -1.7724099,13.719682 -2.2233257,12.7657 -3.0108313,11.099612 -3.2598366,8.60499 -2.7949465,7.039004 -2.2505186,5.205094 -1.1458366,3.684579 0.089256,3.069106 l 0.726155,-0.361858 17.102415,0 c 18.883593,0 17.922807,-0.04445 19.142217,0.885624 3.384469,2.581421 2.977423,9.642026 -0.654933,11.360405 l -0.756513,0.357887 -17.549122,-0.0143 C 5.732497,15.286793 0.405613,15.23695 0.0602,15.128077 z" /><path
   inkscape:connector-curvature="0"
   style="fill:#ffffff;fill-opacity:1;fill-rule:evenodd;stroke:#ffffff;stroke-width:1.40043521;stroke-linecap:square;stroke-linejoin:round;stroke-miterlimit:4;stroke-opacity:1;stroke-dasharray:none"
   id="path4951"
   d="M 4.0819,1.153945 C 2.136721,0.695909 1.215978,-0.870202 1.077647,-3.956053 0.984537,-6.033199 1.230076,-7.30294 2.036404,-8.913934 c 0.618234,-1.235194 1.551325,-2.184677 2.276007,-2.31599 0.241586,-0.04378 6.363087,-0.06104 13.603337,-0.03837 l 13.164091,0.04122 0.790057,0.387986 c 2.910196,1.429159 4.006547,6.25367 2.193937,9.654473 C 33.53177,-0.186362 32.373492,0.909497 31.608048,1.13883 30.931331,1.341579 4.939353,1.355859 4.0819,1.15395 l 0,0 z" /><path
   inkscape:connector-curvature="0"
   style="fill:#ffffff;fill-opacity:1;fill-rule:evenodd;stroke:#ffffff;stroke-width:1.40043521;stroke-linecap:square;stroke-linejoin:round;stroke-miterlimit:4;stroke-opacity:1;stroke-dasharray:none"
   id="path4953"
   d="m 8.074958,-13.057792 c -1.371499,-0.683447 -2.787099,-2.690327 -3.244132,-4.599171 -0.88421,-3.692989 1.403395,-7.445369 5.130898,-8.41626 1.231225,-0.320693 15.664232,-0.308168 16.610963,0.01442 0.943505,0.321484 1.921006,1.265954 2.550961,2.46476 1.732377,3.29672 1.490708,7.424344 -0.563252,9.620195 -1.265397,1.352811 -0.616534,1.276312 -10.82569,1.276312 l -8.936815,0 -0.722933,-0.360253 0,0 z" /><path
   inkscape:connector-curvature="0"
   style="fill:#ffffff;fill-opacity:1;fill-rule:evenodd;stroke:#ffffff;stroke-width:1.40043521;stroke-linecap:square;stroke-linejoin:round;stroke-miterlimit:4;stroke-opacity:1;stroke-dasharray:none"
   id="path4955"
   d="m 34.269704,62.005433 c -0.620753,-0.271624 -2.271691,-1.856537 -3.10467,-2.980507 -1.62189,-2.188477 -2.524047,-4.40059 -2.635448,-6.462186 -0.268575,-4.970287 3.229519,-13.94771 8.069203,-20.708603 0.623214,-0.870612 1.133117,-1.640411 1.133117,-1.710667 0,-0.07026 -0.59616,-0.127736 -1.3248,-0.127736 l -1.3248,0 0.669294,-0.88426 c 2.42471,-3.203486 2.467614,-8.908174 0.08788,-11.684646 l -0.510137,-0.595185 0.494172,0 c 0.768794,0 1.912658,-0.281802 2.648649,-0.652521 2.060475,-1.037861 3.394033,-3.50013 3.562077,-6.576982 C 42.292024,4.902179 39.671947,1.331341 35.93544,1.310237 l -0.606097,-0.0034 0.476807,-0.557043 c 2.019989,-2.359903 2.386156,-6.954823 0.803994,-10.089068 -1.046194,-2.0725 -3.089338,-3.358241 -5.336507,-3.358241 l -0.562657,0 0.494221,-0.603132 c 2.449687,-2.989545 2.290882,-8.776723 -0.336083,-12.247543 l -0.555218,-0.73357 10.746189,0.0043 c 6.115486,0.0025 11.198793,0.06298 11.796516,0.140445 1.77023,0.229421 3.276673,0.805245 4.796491,1.833417 l 0.80525,0.544759 0,-1.261472 0,-1.261473 12.32383,0 12.323829,0 0,28.148747 0,28.148747 -12.36794,0 -12.367941,0 -2.742983,3.045946 c -6.153425,6.833071 -10.181636,11.801925 -13.10531,16.165585 -1.824509,2.723126 -3.310516,5.837721 -4.297452,9.007237 -0.725804,2.330903 -1.195529,3.206204 -2.008218,3.742182 -0.444845,0.29338 -1.312402,0.306194 -1.946457,0.02875 l 0,0 z m 44.775039,-60.068424 0,-24.017464 -8.262567,0 -8.262568,0 0,24.017464 0,24.017463 8.262568,0 8.262567,0 0,-24.017463 z" /></g>
</g></svg>