<?xml version="1.0" encoding="UTF-8" standalone="no"?>
<svg
   xmlns:dc="http://purl.org/dc/elements/1.1/"
   xmlns:cc="http://creativecommons.org/ns#"
   xmlns:rdf="http://www.w3.org/1999/02/22-rdf-syntax-ns#"
   xmlns:svg="http://www.w3.org/2000/svg"
   xmlns="http://www.w3.org/2000/svg"
   xmlns:sodipodi="http://sodipodi.sourceforge.net/DTD/sodipodi-0.dtd"
   xmlns:inkscape="http://www.inkscape.org/namespaces/inkscape"
   version="1.1"
   viewBox="0 0 200 200"
   stroke-miterlimit="10"
   id="svg2"
   inkscape:version="0.48.2 r9819"
   width="100%"
   height="100%"
   sodipodi:docname="output_alternative.svg"
   style="fill:none;stroke:none">
  <metadata
     id="metadata51">
    <rdf:RDF>
      <cc:Work
         rdf:about="">
        <dc:format>image/svg+xml</dc:format>
        <dc:type
           rdf:resource="http://purl.org/dc/dcmitype/StillImage" />
        <dc:title></dc:title>
      </cc:Work>
    </rdf:RDF>
  </metadata>
  <defs
     id="defs49">
    <clipPath
       clipPathUnits="userSpaceOnUse"
       id="clipPath3896">
      <rect
         style="fill:none;stroke:#000000;stroke-width:2.34887505;stroke-opacity:1"
         id="rect3898"
         width="407.72437"
         height="390.81046"
         x="174.67464"
         y="131.93701"
         ry="0" />
    </clipPath>
  </defs>
  <sodipodi:namedview
     pagecolor="#ffffff"
     bordercolor="#666666"
     borderopacity="1"
     objecttolerance="10"
     gridtolerance="10"
     guidetolerance="10"
     inkscape:pageopacity="0"
     inkscape:pageshadow="2"
     inkscape:window-width="1280"
     inkscape:window-height="752"
     id="namedview47"
     showgrid="false"
     inkscape:zoom="4.9384946"
     inkscape:cx="71.513787"
     inkscape:cy="103.66794"
     inkscape:window-x="0"
     inkscape:window-y="0"
     inkscape:window-maximized="1"
     inkscape:current-layer="svg2" />
  <clipPath
     id="p.0">
    <path
       d="M 0,0 960,0 960,720 0,720 0,0 z"
       clip-rule="nonzero"
       id="path5"
       inkscape:connector-curvature="0" />
  </clipPath>
  <g
     clip-path="url(#p.0)"
     id="g7"
     transform="translate(0,-520)"
     style="fill:none">
    <path
       d="m 0,0 960,0 0,720 -960,0 z"
       id="path9"
       inkscape:connector-curvature="0"
       style="fill:none;fill-opacity:0;fill-rule:nonzero" />
    <path
       d="m 378.53275,367.20996 0,0 0,0 c 28.72275,0 56.26907,-11.41006 76.57913,-31.72009 20.31003,-20.31003 31.72009,-47.85639 31.72009,-76.5791 l 0,-118.56694 c 0,-9.9e-4 -7.9e-4,-0.002 -0.002,-0.002 l -216.59662,0.002 0,0 c -10e-4,0 -0.002,8.1e-4 -0.002,0.002 l 0.002,118.56513 0,0 c 0,59.81201 48.48722,108.29919 108.2992,108.29919 z"
       id="path11"
       inkscape:connector-curvature="0"
       style="fill:none;fill-opacity:0;fill-rule:nonzero" />
    <path
       d="m 378.53275,367.20996 0,0 0,0 c 28.72275,0 56.26907,-11.41006 76.57913,-31.72009 20.31003,-20.31003 31.72009,-47.85639 31.72009,-76.5791 l 0,-118.56694 c 0,-9.9e-4 -7.9e-4,-0.002 -0.002,-0.002 l -216.59662,0.002 0,0 c -10e-4,0 -0.002,8.1e-4 -0.002,0.002 l 0.002,118.56513 0,0 c 0,59.81201 48.48722,108.29919 108.2992,108.29919 z"
       id="path13"
       inkscape:connector-curvature="0"
       style="stroke:#ffffff;stroke-width:16;stroke-linecap:butt;stroke-linejoin:round;fill:none" />
    <path
       d="m 297.11548,459.28085 162.83466,0 26.8819,26.88187 0,26.88189 0,0 -216.59845,0 0,0 0,-26.88189 z"
       id="path15"
       inkscape:connector-curvature="0"
       style="fill:none;fill-opacity:0;fill-rule:nonzero" />
    <path
       d="m 297.11548,459.28085 162.83466,0 26.8819,26.88187 0,26.88189 0,0 -216.59845,0 0,0 0,-26.88189 z"
       id="path17"
       inkscape:connector-curvature="0"
       style="stroke:#ffffff;stroke-width:16;stroke-linecap:butt;stroke-linejoin:round;fill:none" />
    <path
       d="m 355.58792,365.64172 45.88977,0 0,93.63782 -45.88977,0 z"
       id="path19"
       inkscape:connector-curvature="0"
       style="fill:none;fill-opacity:0;fill-rule:nonzero" />
    <path
       d="m 355.58792,365.64172 45.88977,0 0,93.63782 -45.88977,0 z"
       id="path21"
       inkscape:connector-curvature="0"
       style="stroke:#ffffff;stroke-width:16;stroke-linecap:butt;stroke-linejoin:round;fill:none" />
    <path
       d="m 489.62082,198.20013 0,0 c 4.79687,-17.02574 19.71741,-29.24263 37.35489,-30.58611 17.63751,-1.34349 34.23627,8.47252 41.55664,24.57528 7.32031,16.10275 3.80347,35.06338 -8.80487,47.46971 l 0,0 c 12.60834,-12.40633 16.12518,-31.36696 8.80487,-47.46971 -7.32037,-16.10276 -23.91913,-25.91877 -41.55664,-24.57527 -17.63748,1.34347 -32.55801,13.56036 -37.35489,30.5861 z"
       id="path23"
       inkscape:connector-curvature="0"
       style="fill:none;fill-opacity:0;fill-rule:nonzero" />
    <path
       d="m 489.62082,198.20013 0,0 c 4.79687,-17.02574 19.71741,-29.24263 37.35489,-30.58611 17.63751,-1.34349 34.23627,8.47252 41.55664,24.57528 7.32031,16.10275 3.80347,35.06338 -8.80487,47.46971 l 0,0 c 12.60834,-12.40633 16.12518,-31.36696 8.80487,-47.46971 -7.32037,-16.10276 -23.91913,-25.91877 -41.55664,-24.57527 -17.63748,1.34347 -32.55801,13.56036 -37.35489,30.5861 z"
       id="path25"
       inkscape:connector-curvature="0"
       style="stroke:#ffffff;stroke-width:16;stroke-linecap:butt;stroke-linejoin:round;fill:none" />
    <path
       d="m 528.5031,312.63284 0,0 c -4.14917,8.00891 -12.90271,12.52316 -21.82913,11.25742 -8.92642,-1.26578 -16.07727,-8.03528 -17.83237,-16.88141 -1.75513,-8.84613 2.26859,-17.83805 10.03409,-22.42347 l 0,0 c -7.7655,4.58542 -11.78922,13.57734 -10.03409,22.42347 1.7551,8.84613 8.90595,15.61563 17.83237,16.88141 8.92642,1.26574 17.67996,-3.24851 21.82913,-11.25742 z"
       id="path27"
       inkscape:connector-curvature="0"
       style="fill:none;fill-opacity:0;fill-rule:nonzero" />
    <path
       d="m 528.5031,312.63284 0,0 c -4.14917,8.00891 -12.90271,12.52316 -21.82913,11.25742 -8.92642,-1.26578 -16.07727,-8.03528 -17.83237,-16.88141 -1.75513,-8.84613 2.26859,-17.83805 10.03409,-22.42347 l 0,0 c -7.7655,4.58542 -11.78922,13.57734 -10.03409,22.42347 1.7551,8.84613 8.90595,15.61563 17.83237,16.88141 8.92642,1.26574 17.67996,-3.24851 21.82913,-11.25742 z"
       id="path29"
       inkscape:connector-curvature="0"
       style="stroke:#ffffff;stroke-width:16;stroke-linecap:butt;stroke-linejoin:round;fill:none" />
    <path
       d="m 498.8757,284.5854 60.85178,-44.92638"
       id="path31"
       inkscape:connector-curvature="0"
       style="fill:none;fill-opacity:0;fill-rule:nonzero" />
    <path
       d="m 498.8757,284.5854 60.85178,-44.92638"
       id="path33"
       inkscape:connector-curvature="0"
       style="stroke:#ffffff;stroke-width:16;stroke-linecap:butt;stroke-linejoin:round;fill:none" />
    <path
       d="m 267.4447,198.20013 0,0 c -4.79688,-17.02574 -19.71739,-29.24263 -37.35489,-30.58611 -17.6375,-1.34349 -34.2363,8.47252 -41.55664,24.57528 -7.32034,16.10275 -3.80345,35.06338 8.80484,47.46971 l 0,0 c -12.60829,-12.40633 -16.12518,-31.36696 -8.80484,-47.46971 7.32034,-16.10276 23.91914,-25.91877 41.55664,-24.57527 17.6375,1.34347 32.55801,13.56036 37.35489,30.5861 z"
       id="path35"
       inkscape:connector-curvature="0"
       style="fill:none;fill-opacity:0;fill-rule:nonzero" />
    <path
       d="m 267.4447,198.20013 0,0 c -4.79688,-17.02574 -19.71739,-29.24263 -37.35489,-30.58611 -17.6375,-1.34349 -34.2363,8.47252 -41.55664,24.57528 -7.32034,16.10275 -3.80345,35.06338 8.80484,47.46971 l 0,0 c -12.60829,-12.40633 -16.12518,-31.36696 -8.80484,-47.46971 7.32034,-16.10276 23.91914,-25.91877 41.55664,-24.57527 17.6375,1.34347 32.55801,13.56036 37.35489,30.5861 z"
       id="path37"
       inkscape:connector-curvature="0"
       style="stroke:#ffffff;stroke-width:16;stroke-linecap:butt;stroke-linejoin:round;fill:none" />
    <path
       d="m 228.56238,312.63284 0,0 c 4.14917,8.00891 12.90276,12.52316 21.82916,11.25742 8.92639,-1.26578 16.07727,-8.03528 17.83237,-16.88141 1.75513,-8.84613 -2.26859,-17.83805 -10.03409,-22.42347 l 0,0 c 7.76551,4.58542 11.78922,13.57734 10.03409,22.42347 -1.7551,8.84613 -8.90598,15.61563 -17.83237,16.88141 -8.9264,1.26574 -17.67999,-3.24851 -21.82916,-11.25742 z"
       id="path39"
       inkscape:connector-curvature="0"
       style="fill:none;fill-opacity:0;fill-rule:nonzero" />
    <path
       d="m 228.56238,312.63284 0,0 c 4.14917,8.00891 12.90276,12.52316 21.82916,11.25742 8.92639,-1.26578 16.07727,-8.03528 17.83237,-16.88141 1.75513,-8.84613 -2.26859,-17.83805 -10.03409,-22.42347 l 0,0 c 7.76551,4.58542 11.78922,13.57734 10.03409,22.42347 -1.7551,8.84613 -8.90598,15.61563 -17.83237,16.88141 -8.9264,1.26574 -17.67999,-3.24851 -21.82916,-11.25742 z"
       id="path41"
       inkscape:connector-curvature="0"
       style="stroke:#ffffff;stroke-width:16;stroke-linecap:butt;stroke-linejoin:round;fill:none" />
    <path
       d="M 258.18982,284.5854 197.33801,239.65902"
       id="path43"
       inkscape:connector-curvature="0"
       style="fill:none;fill-opacity:0;fill-rule:nonzero" />
    <path
       d="M 258.18982,284.5854 197.33801,239.65902"
       id="path45"
       inkscape:connector-curvature="0"
       style="stroke:#ffffff;stroke-width:16;stroke-linecap:butt;stroke-linejoin:round;fill:none" />
  </g>
  <rect
     style="fill:#2fa4e7;fill-opacity:1;fill-rule:evenodd;stroke:none"
     id="rect4370"
     width="200"
     height="200"
     x="0"
     y="0"
     ry="0" />
  <g
     id="g3971"
     transform="translate(0,-5.9387875)">
    <path
       id="path4382"
       d="m 104.44404,122.0667 0,0 0,0 c 11.43325,0 22.39821,-4.54183 30.48275,-12.62635 8.08452,-8.08453 12.62636,-19.049509 12.62636,-30.482744 l 0,-47.196235 c 0,-3.94e-4 -3.2e-4,-7.96e-4 -8e-4,-7.96e-4 l -86.217497,7.96e-4 0,0 c -3.98e-4,0 -7.96e-4,3.23e-4 -7.96e-4,7.97e-4 l 7.96e-4,47.195514 0,0 c 0,23.808508 19.30061,43.109098 43.109107,43.109098 z"
       inkscape:connector-curvature="0"
       style="fill:none" />
    <path
       id="path4384"
       d="m 104.44447,122.0667 0,0 0,0 c 11.43325,0 22.39821,-4.54183 30.48275,-12.62635 8.08452,-8.08453 12.62636,-19.049509 12.62636,-30.482744 l 0,-47.196235 c 0,-3.94e-4 -3.2e-4,-7.96e-4 -8e-4,-7.96e-4 l -86.217497,7.96e-4 0,0 c -3.98e-4,0 -7.96e-4,3.23e-4 -7.96e-4,7.97e-4 l 7.96e-4,47.195514 0,0 c 0,23.808508 19.30061,43.109098 43.109107,43.109098 z"
       inkscape:connector-curvature="0"
       style="fill:none;stroke:#ffffff;stroke-width:6.36888981;stroke-linecap:butt;stroke-linejoin:round" />
    <path
       id="path4386"
       d="m 72.035436,158.71604 64.817244,0 10.70049,10.70048 0,10.70048 0,0 -86.218221,0 0,0 0,-10.70048 z"
       inkscape:connector-curvature="0"
       style="fill:none" />
    <path
       id="path4388"
       d="m 72.034993,158.71604 64.817237,0 10.70049,10.70048 0,10.70048 0,0 -86.218213,0 0,0 0,-10.70048 z"
       inkscape:connector-curvature="0"
       style="fill:none;stroke:#ffffff;stroke-width:6.36888981;stroke-linecap:butt;stroke-linejoin:round" />
    <path
       id="path4392"
       d="m 95.310277,121.44246 18.266673,0 0,37.27306 -18.266673,0 z"
       inkscape:connector-curvature="0"
       style="fill:none;stroke:#ffffff;stroke-width:6.36888981;stroke-linecap:butt;stroke-linejoin:round" />
    <path
       id="path4394"
       d="m 148.66326,54.791396 0,0 c 1.90943,-6.777191 7.84863,-11.640193 14.86933,-12.174973 7.02071,-0.534783 13.62794,3.372534 16.54185,9.782328 2.91389,6.40979 1.51399,13.957175 -3.50483,18.895584 l 0,0 c 5.01882,-4.938409 6.41872,-12.485794 3.50483,-18.895584 -2.91391,-6.409794 -9.52114,-10.317111 -16.54185,-9.782324 -7.0207,0.534776 -12.9599,5.397778 -14.86933,12.174969 z"
       inkscape:connector-curvature="0"
       style="fill:none" />
    <path
       id="path4398"
       d="m 164.14057,100.34198 0,0 c -1.6516,3.18799 -5.13599,4.98491 -8.6892,4.48108 -3.55322,-0.50386 -6.39965,-3.19849 -7.09828,-6.719744 -0.69864,-3.521252 0.90303,-7.100536 3.99413,-8.925788 l 0,0 c -3.0911,1.825252 -4.69277,5.404536 -3.99413,8.925788 0.69863,3.521254 3.54506,6.215884 7.09828,6.719744 3.55321,0.50383 7.0376,-1.29309 8.6892,-4.48108 z"
       inkscape:connector-curvature="0"
       style="fill:none" />
    <path
       id="path4402"
       d="M 152.34722,89.177536 176.56961,71.294339"
       inkscape:connector-curvature="0"
       style="fill:none" />
    <g
       id="g3961">
      <path
         style="fill:none;stroke:#ffffff;stroke-width:6.36888981;stroke-linecap:butt;stroke-linejoin:round"
         inkscape:connector-curvature="0"
         d="m 148.66326,54.791396 0,0 c 1.90943,-6.777191 7.84863,-11.640193 14.86933,-12.174973 7.02071,-0.534783 13.62794,3.372534 16.54185,9.782328 2.91389,6.40979 1.51399,13.957175 -3.50483,18.895584 l 0,0 c 5.01882,-4.938409 6.41872,-12.485794 3.50483,-18.895584 -2.91391,-6.409794 -9.52114,-10.317111 -16.54185,-9.782324 -7.0207,0.534776 -12.9599,5.397778 -14.86933,12.174969 z"
         id="path4396" />
      <path
         style="fill:none;stroke:#ffffff;stroke-width:6.36888981;stroke-linecap:butt;stroke-linejoin:round"
         inkscape:connector-curvature="0"
         d="m 164.14057,100.34198 0,0 c -1.6516,3.18799 -5.13599,4.98491 -8.6892,4.48108 -3.55322,-0.50386 -6.39965,-3.19849 -7.09828,-6.719744 -0.69864,-3.521252 0.90303,-7.100536 3.99413,-8.925788 l 0,0 c -3.0911,1.825252 -4.69277,5.404536 -3.99413,8.925788 0.69863,3.521254 3.54506,6.215884 7.09828,6.719744 3.55321,0.50383 7.0376,-1.29309 8.6892,-4.48108 z"
         id="path4400" />
      <path
         style="fill:none;stroke:#ffffff;stroke-width:6.36888981;stroke-linecap:butt;stroke-linejoin:round"
         inkscape:connector-curvature="0"
         d="M 152.34722,89.177536 176.56961,71.294339"
         id="path4404" />
    </g>
    <path
       id="path4406"
       d="m 60.224816,54.791396 0,0 C 58.315391,48.014205 52.376198,43.151203 45.355492,42.616423 38.334787,42.08164 31.727541,45.988957 28.813639,52.398751 c -2.913902,6.40979 -1.513984,13.957175 3.504816,18.895584 l 0,0 c -5.0188,-4.938409 -6.418718,-12.485794 -3.504816,-18.895584 2.913902,-6.409794 9.521148,-10.317111 16.541853,-9.782324 7.020706,0.534776 12.959899,5.397778 14.869324,12.174969 z"
       inkscape:connector-curvature="0"
       style="fill:none" />
    <path
       id="path4410"
       d="m 44.74749,100.34198 0,0 c 1.651601,3.18799 5.136016,4.98491 8.68922,4.48108 3.553199,-0.50386 6.399647,-3.19849 7.098274,-6.719744 0.69864,-3.521252 -0.903025,-7.100536 -3.994125,-8.925788 l 0,0 c 3.091104,1.825252 4.692765,5.404536 3.994125,8.925788 -0.698627,3.521254 -3.545075,6.215884 -7.098274,6.719744 -3.553204,0.50383 -7.037619,-1.29309 -8.68922,-4.48108 z"
       inkscape:connector-curvature="0"
       style="fill:none" />
    <path
       id="path4414"
       d="M 56.540859,89.177536 32.318455,71.294339"
       inkscape:connector-curvature="0"
       style="fill:none" />
    <g
       id="g3956">
      <g
         id="g3966">
        <path
           id="path4408"
           d="m 60.224816,54.791396 0,0 C 58.315391,48.014205 52.376198,43.151203 45.355492,42.616423 38.334787,42.08164 31.727541,45.988957 28.813639,52.398751 c -2.913902,6.40979 -1.513984,13.957175 3.504816,18.895584 l 0,0 c -5.0188,-4.938409 -6.418718,-12.485794 -3.504816,-18.895584 2.913902,-6.409794 9.521148,-10.317111 16.541853,-9.782324 7.020706,0.534776 12.959899,5.397778 14.869324,12.174969 z"
           inkscape:connector-curvature="0"
           style="fill:none;stroke:#ffffff;stroke-width:6.36888981;stroke-linecap:butt;stroke-linejoin:round" />
        <path
           id="path4412"
           d="m 44.74749,100.34198 0,0 c 1.651601,3.18799 5.136016,4.98491 8.68922,4.48108 3.553199,-0.50386 6.399647,-3.19849 7.098274,-6.719744 0.69864,-3.521252 -0.903025,-7.100536 -3.994125,-8.925788 l 0,0 c 3.091104,1.825252 4.692765,5.404536 3.994125,8.925788 -0.698627,3.521254 -3.545075,6.215884 -7.098274,6.719744 -3.553204,0.50383 -7.037619,-1.29309 -8.68922,-4.48108 z"
           inkscape:connector-curvature="0"
           style="fill:none;stroke:#ffffff;stroke-width:6.36888981;stroke-linecap:butt;stroke-linejoin:round" />
        <path
           id="path4416"
           d="M 56.540859,89.177536 32.318455,71.294339"
           inkscape:connector-curvature="0"
           style="fill:none;stroke:#ffffff;stroke-width:6.36888981;stroke-linecap:butt;stroke-linejoin:round" />
      </g>
    </g>
  </g>
</svg>
