<?xml version="1.0" encoding="UTF-8" standalone="no"?>
<!-- Created with Inkscape (http://www.inkscape.org/) -->

<svg
   xmlns:dc="http://purl.org/dc/elements/1.1/"
   xmlns:cc="http://creativecommons.org/ns#"
   xmlns:rdf="http://www.w3.org/1999/02/22-rdf-syntax-ns#"
   xmlns:svg="http://www.w3.org/2000/svg"
   xmlns="http://www.w3.org/2000/svg"
   xmlns:sodipodi="http://sodipodi.sourceforge.net/DTD/sodipodi-0.dtd"
   xmlns:inkscape="http://www.inkscape.org/namespaces/inkscape"
   width="200"
   height="200"
   id="svg2"
   version="1.1"
   inkscape:version="0.48.2 r9819"
   sodipodi:docname="output_lottery.svg">
  <defs
     id="defs4" />
  <sodipodi:namedview
     id="base"
     pagecolor="#ffffff"
     bordercolor="#666666"
     borderopacity="1.0"
     inkscape:pageopacity="0.0"
     inkscape:pageshadow="2"
     inkscape:zoom="2.8500993"
     inkscape:cx="43.921451"
     inkscape:cy="137.58861"
     inkscape:document-units="px"
     inkscape:current-layer="layer3"
     showgrid="false"
     inkscape:window-width="1280"
     inkscape:window-height="752"
     inkscape:window-x="0"
     inkscape:window-y="0"
     inkscape:window-maximized="1" />
  <metadata
     id="metadata7">
    <rdf:RDF>
      <cc:Work
         rdf:about="">
        <dc:format>image/svg+xml</dc:format>
        <dc:type
           rdf:resource="http://purl.org/dc/dcmitype/StillImage" />
        <dc:title></dc:title>
      </cc:Work>
    </rdf:RDF>
  </metadata>
  <g
     inkscape:groupmode="layer"
     id="layer3"
     inkscape:label="bck"
     transform="translate(0,-852.36218)">
    <rect
       style="fill:#2fa4e7;fill-opacity:1;fill-rule:evenodd;stroke:none"
       id="rect3860"
       width="200"
       height="200"
       x="0"
       y="852.36218"
       ry="0.053299602" />
  </g>
  <g
     inkscape:label="Layer 1"
     inkscape:groupmode="layer"
     id="layer1"
     transform="translate(0,-852.36218)">
    <g
       id="g5077"
       transform="translate(-0.42887767,7.0293196)">
      <rect
         ry="11.792915"
         y="918.50574"
         x="12.731323"
         height="74.83963"
         width="74.83963"
         id="rect2985"
         style="fill:none;stroke:#ffffff;stroke-width:3.64000368;stroke-linejoin:round;stroke-miterlimit:4;stroke-opacity:1;stroke-dasharray:none" />
      <rect
         transform="matrix(0.73665263,0.67627132,-0.67627132,0.73665263,0,0)"
         style="fill:none;stroke:#ffffff;stroke-width:3.64000344;stroke-linejoin:round;stroke-miterlimit:4;stroke-opacity:1;stroke-dasharray:none"
         id="rect3024"
         width="74.83963"
         height="74.83963"
         x="705.09698"
         y="564.20709"
         ry="11.792915" />
      <path
         transform="matrix(0.27794358,0,0,0.27794358,-12.02053,748.70872)"
         d="m 188.57142,680.93359 c 0,12.62366 -10.23349,22.85715 -22.85714,22.85715 -12.62365,0 -22.85714,-10.23349 -22.85714,-22.85715 0,-12.62365 10.23349,-22.85714 22.85714,-22.85714 12.62365,0 22.85714,10.23349 22.85714,22.85714 z"
         sodipodi:ry="22.857143"
         sodipodi:rx="22.857143"
         sodipodi:cy="680.93359"
         sodipodi:cx="165.71428"
         id="path3802"
         style="fill:#ffffff;fill-opacity:1;stroke:#ffffff;stroke-width:9.8029356;stroke-linecap:square;stroke-linejoin:round;stroke-miterlimit:4;stroke-opacity:1;stroke-dasharray:none"
         sodipodi:type="arc" />
      <path
         sodipodi:type="arc"
         style="fill:#ffffff;fill-opacity:1;stroke:#ffffff;stroke-width:9.8029356;stroke-linecap:square;stroke-linejoin:round;stroke-miterlimit:4;stroke-opacity:1;stroke-dasharray:none"
         id="path3804"
         sodipodi:cx="165.71428"
         sodipodi:cy="680.93359"
         sodipodi:rx="22.857143"
         sodipodi:ry="22.857143"
         d="m 188.57142,680.93359 c 0,12.62366 -10.23349,22.85715 -22.85714,22.85715 -12.62365,0 -22.85714,-10.23349 -22.85714,-22.85715 0,-12.62365 10.23349,-22.85714 22.85714,-22.85714 12.62365,0 22.85714,10.23349 22.85714,22.85714 z"
         transform="matrix(0.27794358,0,0,0.27794358,19.68767,782.14987)" />
      <path
         transform="matrix(0.27794358,0,0,0.27794358,94.57083,731.12171)"
         d="m 188.57142,680.93359 c 0,12.62366 -10.23349,22.85715 -22.85714,22.85715 -12.62365,0 -22.85714,-10.23349 -22.85714,-22.85715 0,-12.62365 10.23349,-22.85714 22.85714,-22.85714 12.62365,0 22.85714,10.23349 22.85714,22.85714 z"
         sodipodi:ry="22.857143"
         sodipodi:rx="22.857143"
         sodipodi:cy="680.93359"
         sodipodi:cx="165.71428"
         id="path3806"
         style="fill:#ffffff;fill-opacity:1;stroke:#ffffff;stroke-width:9.8029356;stroke-linecap:square;stroke-linejoin:round;stroke-miterlimit:4;stroke-opacity:1;stroke-dasharray:none"
         sodipodi:type="arc" />
      <path
         sodipodi:type="arc"
         style="fill:#ffffff;fill-opacity:1;stroke:#ffffff;stroke-width:9.8029356;stroke-linecap:square;stroke-linejoin:round;stroke-miterlimit:4;stroke-opacity:1;stroke-dasharray:none"
         id="path3808"
         sodipodi:cx="165.71428"
         sodipodi:cy="680.93359"
         sodipodi:rx="22.857143"
         sodipodi:ry="22.857143"
         d="m 188.57142,680.93359 c 0,12.62366 -10.23349,22.85715 -22.85714,22.85715 -12.62365,0 -22.85714,-10.23349 -22.85714,-22.85715 0,-12.62365 10.23349,-22.85714 22.85714,-22.85714 12.62365,0 22.85714,10.23349 22.85714,22.85714 z"
         transform="matrix(0.27794358,0,0,0.27794358,94.57083,757.41007)" />
      <path
         transform="matrix(0.27794358,0,0,0.27794358,94.57083,783.69842)"
         d="m 188.57142,680.93359 c 0,12.62366 -10.23349,22.85715 -22.85714,22.85715 -12.62365,0 -22.85714,-10.23349 -22.85714,-22.85715 0,-12.62365 10.23349,-22.85714 22.85714,-22.85714 12.62365,0 22.85714,10.23349 22.85714,22.85714 z"
         sodipodi:ry="22.857143"
         sodipodi:rx="22.857143"
         sodipodi:cy="680.93359"
         sodipodi:cx="165.71428"
         id="path3810"
         style="fill:#ffffff;fill-opacity:1;stroke:#ffffff;stroke-width:9.8029356;stroke-linecap:square;stroke-linejoin:round;stroke-miterlimit:4;stroke-opacity:1;stroke-dasharray:none"
         sodipodi:type="arc" />
    </g>
  </g>
</svg>
