<?xml version="1.0" encoding="UTF-8" standalone="no"?>
<svg
   xmlns:dc="http://purl.org/dc/elements/1.1/"
   xmlns:cc="http://creativecommons.org/ns#"
   xmlns:rdf="http://www.w3.org/1999/02/22-rdf-syntax-ns#"
   xmlns:svg="http://www.w3.org/2000/svg"
   xmlns="http://www.w3.org/2000/svg"
   xmlns:xlink="http://www.w3.org/1999/xlink"
   xmlns:sodipodi="http://sodipodi.sourceforge.net/DTD/sodipodi-0.dtd"
   xmlns:inkscape="http://www.inkscape.org/namespaces/inkscape"
   version="1.1"
   id="Layer_1"
   x="0px"
   y="0px"
   width="400"
   height="400"
   viewBox="326.5 -0.5 400 399.99998"
   enable-background="new 326.5 -0.5 100 100"
   xml:space="preserve"
   inkscape:version="0.48.2 r9819"
   sodipodi:docname="poll_icon.svg"><metadata
   id="metadata17"><rdf:RDF><cc:Work
       rdf:about=""><dc:format>image/svg+xml</dc:format><dc:type
         rdf:resource="http://purl.org/dc/dcmitype/StillImage" /><dc:title /></cc:Work></rdf:RDF></metadata><defs
   id="defs15" /><sodipodi:namedview
   pagecolor="#ffffff"
   bordercolor="#666666"
   borderopacity="1"
   objecttolerance="10"
   gridtolerance="10"
   guidetolerance="10"
   inkscape:pageopacity="0"
   inkscape:pageshadow="2"
   inkscape:window-width="1280"
   inkscape:window-height="756"
   id="namedview13"
   showgrid="false"
   fit-margin-top="0"
   fit-margin-left="0"
   fit-margin-right="0"
   fit-margin-bottom="0"
   inkscape:zoom="2.36"
   inkscape:cx="122.03389"
   inkscape:cy="132.62712"
   inkscape:window-x="0"
   inkscape:window-y="0"
   inkscape:window-maximized="0"
   inkscape:current-layer="Layer_1"
   inkscape:showpageshadow="false" />





<rect
   style="fill:#2fa4e7;fill-opacity:1;fill-rule:evenodd;stroke:none"
   id="rect3762"
   width="400"
   height="400"
   x="326.5"
   y="-0.5" /><g
   inkscape:groupmode="layer"
   id="layer1"
   inkscape:label="Layer1"
   style="display:inline"
   transform="translate(37.711853,268.22034)" /><g
   inkscape:groupmode="layer"
   id="layer2"
   inkscape:label="Layer2"
   style="display:inline"
   transform="translate(37.711853,268.22034)" /><g
   id="g3808"
   transform="matrix(2.101695,0,0,2.101695,-264.78817,95.46608)"
   style="fill:#ffffff"><path
     id="path3"
     d="m 408.444,-0.5 c -1.534,0 -2.777,1.244 -2.777,2.778 v 18.056 c 0,1.534 1.243,2.778 2.777,2.778 H 426.5 V -0.5 h -18.056 z"
     inkscape:connector-curvature="0"
     style="fill:#ffffff" /><rect
     id="rect5"
     height="13.889"
     width="94.445"
     y="85.611"
     x="329.27701"
     style="fill:#ffffff" /><path
     id="path7"
     d="m 395.944,28.667 h -1.611 l -14.791,10.566 c -1.827,1.354 -3.436,2.01 -4.916,2.01 -1.872,0 -3.428,-1.058 -4.162,-2.83 -1.003,-2.423 -0.328,-6.224 1.411,-8.061 0.171,-0.197 0.716,-0.82 1.477,-1.686 h -6.574 -3.854 -5.867 V 62 h 38.889 V 28.667 z"
     inkscape:connector-curvature="0"
     style="fill:#ffffff" /><polygon
     id="polygon9"
     points="376.5,64.777 376.5,64.777 347.333,64.777 349.407,57.835 354.277,57.835 354.277,49.501 337.611,49.501 326.5,74.5 326.5,74.5 326.5,82.833 426.5,82.833 426.5,74.5 426.5,74.5 415.389,49.501 398.723,49.501 398.723,57.835 403.592,57.835 405.667,64.777 "
     style="fill:#ffffff" /><path
     id="path11"
     d="M 402.889,2.278 H 389 l -13.889,8.333 c -2.535,1.64 -4.167,2.777 -5.556,6.944 -0.694,2.083 -2.778,8.333 -2.778,8.333 h 7.812 l 1.91,-5.555 c 1.389,-2.778 11.052,-2.718 6.944,1.389 l -9.804,10.864 c -1.145,1.145 -2.059,9.104 4.248,4.414 l 19.444,-13.889 1.39,-4.167 4.166,-4.167 V 2.278 z"
     inkscape:connector-curvature="0"
     style="fill:#ffffff" /><use
     id="use3767"
     xlink:href="#path3"
     y="0"
     x="0"
     width="100"
     height="100"
     style="fill:#ffffff" /><use
     id="use3769"
     xlink:href="#rect5"
     y="0"
     x="0"
     width="100"
     height="100"
     style="fill:#ffffff" /><use
     id="use3771"
     xlink:href="#path7"
     y="0"
     x="0"
     width="100"
     height="100"
     style="fill:#ffffff" /><use
     id="use3773"
     xlink:href="#polygon9"
     y="0"
     x="0"
     width="100"
     height="100"
     style="fill:#ffffff" /><use
     id="use3775"
     xlink:href="#path11"
     y="0"
     x="0"
     width="100"
     height="100"
     style="fill:#ffffff" /><use
     id="use3777"
     xlink:href="#use3767"
     y="0"
     x="0"
     width="100"
     height="100"
     style="fill:#ffffff" /><use
     id="use3779"
     xlink:href="#use3769"
     y="0"
     x="0"
     width="100"
     height="100"
     style="fill:#ffffff" /><use
     id="use3781"
     xlink:href="#use3771"
     y="0"
     x="0"
     width="100"
     height="100"
     style="fill:#ffffff" /><use
     id="use3783"
     xlink:href="#use3773"
     y="0"
     x="0"
     width="100"
     height="100"
     style="fill:#ffffff" /><use
     id="use3785"
     xlink:href="#use3775"
     y="0"
     x="0"
     width="100"
     height="100"
     style="fill:#ffffff" /><use
     x="0"
     y="0"
     xlink:href="#use3767"
     id="use3787"
     width="100"
     height="100"
     style="fill:#ffffff" /><use
     x="0"
     y="0"
     xlink:href="#use3769"
     id="use3789"
     width="100"
     height="100"
     style="fill:#ffffff" /><use
     x="0"
     y="0"
     xlink:href="#use3771"
     id="use3791"
     width="100"
     height="100"
     style="fill:#ffffff" /><use
     x="0"
     y="0"
     xlink:href="#use3773"
     id="use3793"
     width="100"
     height="100"
     style="fill:#ffffff" /><use
     x="0"
     y="0"
     xlink:href="#use3775"
     id="use3795"
     width="100"
     height="100"
     style="fill:#ffffff" /><use
     id="use3797"
     xlink:href="#use3767"
     y="0"
     x="0"
     width="100"
     height="100"
     style="fill:#ffffff" /><use
     id="use3799"
     xlink:href="#use3769"
     y="0"
     x="0"
     width="100"
     height="100"
     style="fill:#ffffff" /><use
     id="use3801"
     xlink:href="#use3771"
     y="0"
     x="0"
     width="100"
     height="100"
     style="fill:#ffffff" /><use
     id="use3803"
     xlink:href="#use3773"
     y="0"
     x="0"
     width="100"
     height="100"
     style="fill:#ffffff" /><use
     id="use3805"
     xlink:href="#use3775"
     y="0"
     x="0"
     width="100"
     height="100"
     style="fill:#ffffff" /></g></svg>