<?xml version="1.0" encoding="UTF-8" standalone="no"?>
<svg
   xmlns:dc="http://purl.org/dc/elements/1.1/"
   xmlns:cc="http://creativecommons.org/ns#"
   xmlns:rdf="http://www.w3.org/1999/02/22-rdf-syntax-ns#"
   xmlns:svg="http://www.w3.org/2000/svg"
   xmlns="http://www.w3.org/2000/svg"
   xmlns:sodipodi="http://sodipodi.sourceforge.net/DTD/sodipodi-0.dtd"
   xmlns:inkscape="http://www.inkscape.org/namespaces/inkscape"
   version="1.1"
   x="0px"
   y="0px"
   width="400"
   height="400"
   viewBox="0 0 400 400"
   enable-background="new 0 0 100 100"
   xml:space="preserve"
   id="svg2"
   inkscape:version="0.48.2 r9819"
   sodipodi:docname="settings_icon.svg"><metadata
   id="metadata14"><rdf:RDF><cc:Work
       rdf:about=""><dc:format>image/svg+xml</dc:format><dc:type
         rdf:resource="http://purl.org/dc/dcmitype/StillImage" /><dc:title /></cc:Work></rdf:RDF></metadata><defs
   id="defs12">
	
	
</defs><sodipodi:namedview
   pagecolor="#ffffff"
   bordercolor="#666666"
   borderopacity="1"
   objecttolerance="10"
   gridtolerance="10"
   guidetolerance="10"
   inkscape:pageopacity="0"
   inkscape:pageshadow="2"
   inkscape:window-width="1280"
   inkscape:window-height="756"
   id="namedview10"
   showgrid="false"
   fit-margin-top="0"
   fit-margin-left="0"
   fit-margin-right="0"
   fit-margin-bottom="0"
   inkscape:zoom="0.70710678"
   inkscape:cx="115.15028"
   inkscape:cy="236.1332"
   inkscape:window-x="37"
   inkscape:window-y="4"
   inkscape:window-maximized="0"
   inkscape:current-layer="svg2" />
<g
   id="Layer_1"
   transform="translate(-87.656181,267.98459)">
</g>

<g
   inkscape:groupmode="layer"
   id="layer1"
   inkscape:label="Layer"
   style="display:inline"
   transform="translate(-87.656181,267.98459)" /><g
   inkscape:groupmode="layer"
   id="layer2"
   inkscape:label="Layer2"
   style="display:inline"
   transform="translate(-87.656181,267.98459)" /><rect
   style="fill:#2fa4e7;fill-opacity:1;fill-rule:evenodd;stroke:none"
   id="rect2995"
   width="400"
   height="400"
   x="0"
   y="0" /><g
   transform="matrix(2.9049854,0,0,2.9049854,-70.433928,44.24922)"
   id="g3771"><path
     inkscape:connector-curvature="0"
     id="path3773"
     d="m 101.85734,55.867831 c -0.465,-0.753 -1.524,-1.106 -2.349001,-0.787 l -3.651,1.402 c -0.826,0.317 -1.988,0.044 -2.591,-0.608 l -2.746,-2.593 c -0.688,-0.558 -1.03,-1.704 -0.76,-2.548 l 1.188,-3.725 c 0.268,-0.842 -0.164,-1.847 -0.958,-2.234 l -7.375,-2.806 c -0.852,-0.241 -1.842,0.225 -2.203,1.033 l -1.588,3.574 c -0.359,0.807 -1.375,1.437 -2.261,1.396 l -3.777,0.115 c -0.878,0.087 -1.932,-0.483 -2.339,-1.269 l -1.795,-3.475 c -0.404,-0.787 -1.431,-1.225 -2.279,-0.975 0,0 -1.993,0.589 -3.719,1.364 -1.729,0.775 -3.493,1.873 -3.493,1.873 -0.752,0.468 -1.106,1.525 -0.791,2.351 l 1.406,3.652 c 0.318,0.826 0.045,1.991 -0.606,2.59 l -2.596,2.743 c -0.557,0.688 -1.706,1.031 -2.547,0.762 l -3.725,-1.189 c -0.842,-0.268 -1.847,0.162 -2.235,0.96 l -2.806,7.375 c -0.239,0.851 0.226,1.841 1.033,2.201 l 3.574,1.587 c 0.808,0.359 1.438,1.378 1.397,2.261 l 0.114,3.776 c 0.089,0.88 -0.482,1.934 -1.268,2.34 l -3.476,1.796 c -0.785,0.404 -1.223,1.432 -0.974,2.281 0,0 0.59,1.99 1.365,3.716 0.774,1.729 1.874,3.495 1.874,3.495 0.467,0.751 1.524,1.106 2.35,0.787 l 3.651,-1.402 c 0.827,-0.319 1.993,-0.044 2.591,0.606 l 2.747,2.595 c 0.687,0.555 1.028,1.703 0.76,2.546 l -1.188,3.725 c -0.27,0.844 0.162,1.85 0.958,2.236 l 7.375,2.807999 c 0.853,0.239 1.843,-0.228 2.202,-1.035 l 1.587,-3.572999 c 0.36,-0.809 1.378,-1.439 2.262,-1.398 l 3.776,-0.113 c 0.881,-0.09 1.933,0.483 2.339,1.27 l 1.793,3.477999 c 0.407,0.785 1.434,1.225 2.282,0.973 0,0 1.99,-0.591 3.719,-1.365 1.728,-0.776999 3.493,-1.872999 3.493,-1.872999 0.751,-0.468 1.106,-1.524 0.789,-2.353 l -1.403,-3.647 c -0.319,-0.828 -0.045,-1.993 0.605,-2.592 l 2.596,-2.748 c 0.561,-0.685 1.702,-1.028 2.546,-0.759 l 3.725001,1.189 c 0.844,0.269 1.85,-0.162 2.239,-0.957 l 2.803,-7.376 c 0.24,-0.851 -0.224,-1.843 -1.034,-2.203 l -3.571,-1.585 c -0.809,-0.363 -1.438001,-1.38 -1.399001,-2.265 l -0.112,-3.773 c -0.088,-0.883 0.483,-1.937 1.270001,-2.34 l 3.475,-1.795 c 0.788,-0.404 1.226,-1.435 0.976,-2.28 0,0 -0.59,-1.994 -1.366,-3.722 -0.78,-1.73 -1.879,-3.493 -1.879,-3.493 z m -23.247001,23.417 c -3.978,1.786 -8.649,0.008 -10.433,-3.969 -1.786,-3.977 -0.008,-8.649 3.97,-10.433 3.976,-1.783 8.646,-0.008 10.431,3.971 1.786,3.974 0.009,8.646 -3.968,10.431 z"
     style="fill:#ffffff" /><path
     inkscape:connector-curvature="0"
     id="path3775"
     d="m 140.72934,28.405831 c -0.108,-0.762 -0.822,-1.417 -1.591,-1.455 l -3.396,-0.168 c -0.771,-0.038 -1.602,-0.666 -1.848,-1.395 l -1.269,-3.029 c -0.351,-0.686 -0.22,-1.715 0.29,-2.291 l 2.257,-2.542 c 0.511,-0.576 0.522,-1.526 0.024,-2.114 l -4.875,-4.825 c -0.592,-0.491 -1.544,-0.469 -2.112,0.047 l -2.521,2.281 c -0.568,0.516 -1.599,0.657 -2.287,0.314 l -3.041,-1.238 c -0.731,-0.239 -1.365,-1.063 -1.411,-1.833 l -0.204,-3.3920005 c -0.047,-0.769 -0.707,-1.478 -1.471,-1.576 0,0 -1.791,-0.234 -3.438,-0.225 -1.646,0.008 -3.435,0.261 -3.435,0.261 -0.758,0.105 -1.414,0.822 -1.454,1.59 l -0.166,3.3940005 c -0.038,0.771 -0.667,1.6 -1.394,1.847 l -3.03,1.27 c -0.687,0.351 -1.717,0.219 -2.292,-0.292 l -2.541001,-2.255 c -0.574,-0.511 -1.527,-0.52 -2.115,-0.025 l -4.825,4.874 c -0.488,0.592 -0.468,1.546 0.047,2.115 l 2.279,2.518 c 0.519,0.571 0.66,1.602 0.317,2.288 l -1.239,3.044 c -0.238,0.729 -1.065,1.366 -1.831,1.412 l -3.395,0.202 c -0.766,0.047 -1.476,0.709 -1.574,1.471 0,0 -0.234,1.792 -0.225,3.437 0.008,1.646 0.26,3.435 0.26,3.435 0.106,0.761 0.821,1.416 1.59,1.454 l 3.396,0.168 c 0.768,0.038 1.599,0.666 1.848,1.394 l 1.266,3.029 c 0.35,0.684 0.22,1.716 -0.29,2.291 l -2.257,2.542 c -0.51,0.576 -0.52,1.527 -0.025,2.115 l 4.876,4.824 c 0.593,0.491 1.544,0.47 2.113,-0.046 l 2.521001,-2.28 c 0.568,-0.517 1.598,-0.658 2.286,-0.316 l 3.042,1.238 c 0.732,0.24 1.366,1.064 1.414,1.833 l 0.203,3.392 c 0.046,0.77 0.707,1.477 1.47,1.577 0,0 1.79,0.231 3.437,0.224 1.646,-0.007 3.435,-0.26 3.435,-0.26 0.762,-0.105 1.418,-0.822 1.453,-1.593 l 0.17,-3.392 c 0.037,-0.769 0.665,-1.6 1.394,-1.847 l 3.029,-1.269 c 0.684,-0.349 1.717,-0.22 2.291,0.291 l 2.544,2.255 c 0.574,0.511 1.525,0.522 2.113,0.025 l 4.824,-4.875 c 0.491,-0.592 0.471,-1.542 -0.047,-2.112 l -2.279,-2.52 c -0.518,-0.571 -0.658,-1.601 -0.316,-2.288 l 1.237,-3.043 c 0.239,-0.73 1.065,-1.366 1.83,-1.411 l 3.397,-0.205 c 0.767,-0.045 1.476,-0.708 1.575,-1.471 0,0 0.231,-1.79 0.224,-3.437 -0.006,-1.644 -0.258,-3.432 -0.258,-3.432 z m -26.714,11.396 c -4.321,0.023 -7.843,-3.463 -7.865,-7.785 -0.022,-4.321 3.463,-7.845 7.785,-7.866 4.323,-0.022 7.844,3.464 7.866,7.786 0.022,4.323 -3.464,7.845 -7.786,7.865 z"
     style="fill:#ffffff" /></g></svg>