<?xml version="1.0" encoding="UTF-8" standalone="no"?>
<!-- Created with Inkscape (http://www.inkscape.org/) -->

<svg
   xmlns:dc="http://purl.org/dc/elements/1.1/"
   xmlns:cc="http://creativecommons.org/ns#"
   xmlns:rdf="http://www.w3.org/1999/02/22-rdf-syntax-ns#"
   xmlns:svg="http://www.w3.org/2000/svg"
   xmlns="http://www.w3.org/2000/svg"
   xmlns:sodipodi="http://sodipodi.sourceforge.net/DTD/sodipodi-0.dtd"
   xmlns:inkscape="http://www.inkscape.org/namespaces/inkscape"
   width="561.92877"
   height="561.92877"
   id="svg2"
   version="1.1"
   inkscape:version="0.48.2 r9819"
   sodipodi:docname="logo.svg">
  <defs
     id="defs4" />
  <sodipodi:namedview
     id="base"
     pagecolor="#ffffff"
     bordercolor="#666666"
     borderopacity="1.0"
     inkscape:pageopacity="0.0"
     inkscape:pageshadow="2"
     inkscape:zoom="0.73"
     inkscape:cx="223.20298"
     inkscape:cy="252.55032"
     inkscape:document-units="px"
     inkscape:current-layer="layer2"
     showgrid="true"
     showguides="false"
     inkscape:window-width="1920"
     inkscape:window-height="1036"
     inkscape:window-x="0"
     inkscape:window-y="0"
     inkscape:window-maximized="1"
     fit-margin-top="0"
     fit-margin-left="0"
     fit-margin-right="0"
     fit-margin-bottom="0">
    <inkscape:grid
       type="xygrid"
       id="grid4181"
       empspacing="5"
       visible="true"
       enabled="true"
       snapvisiblegridlinesonly="true" />
  </sodipodi:namedview>
  <metadata
     id="metadata7">
    <rdf:RDF>
      <cc:Work
         rdf:about="">
        <dc:format>image/svg+xml</dc:format>
        <dc:type
           rdf:resource="http://purl.org/dc/dcmitype/StillImage" />
        <dc:title></dc:title>
      </cc:Work>
    </rdf:RDF>
  </metadata>
  <g
     inkscape:label="Layer 1"
     inkscape:groupmode="layer"
     id="layer1"
     style="display:inline"
     transform="translate(-79.8032,-178.23595)" />
  <g
     inkscape:groupmode="layer"
     id="layer2"
     inkscape:label="up"
     style="display:inline"
     transform="translate(-79.8032,-178.23595)">
    <g
       id="g4198"
       transform="matrix(0.94571208,-0.32500563,0.32500563,0.94571208,-129.65737,142.18053)">
      <path
         transform="matrix(0.64881582,0,0,0.64881582,291.31688,312.82643)"
         d="m 533.80281,225.60162 c 0,235.69335 -191.06721,426.76056 -426.76056,426.76056 -235.69335,0 -426.76056,-191.06721 -426.76056,-426.76056 0,-235.693345 191.06721,-426.76056 426.76056,-426.76056 235.69335,0 426.76056,191.067215 426.76056,426.76056 z"
         sodipodi:ry="426.76056"
         sodipodi:rx="426.76056"
         sodipodi:cy="225.60162"
         sodipodi:cx="107.04225"
         id="path2987"
         style="fill:none;stroke:#000000;stroke-width:12.33015537;stroke-linecap:square;stroke-linejoin:miter;stroke-miterlimit:4;stroke-opacity:1;stroke-dasharray:none;marker-start:none;marker-mid:none;display:inline"
         sodipodi:type="arc" />
      <path
         sodipodi:type="arc"
         style="fill:none;stroke:#1995dc;stroke-width:12.33015537;stroke-linecap:square;stroke-linejoin:miter;stroke-miterlimit:4;stroke-opacity:1;stroke-dasharray:none;marker-start:none;marker-mid:none;display:inline"
         id="path4124"
         sodipodi:cx="107.04225"
         sodipodi:cy="225.60162"
         sodipodi:rx="426.76056"
         sodipodi:ry="426.76056"
         d="m 533.80281,225.60162 c 0,235.69335 -191.06721,426.76056 -426.76056,426.76056 -235.69335,0 -426.76056,-191.06721 -426.76056,-426.76056 0,-235.693345 191.06721,-426.76056 426.76056,-426.76056 235.69335,0 426.76056,191.067215 426.76056,426.76056 z"
         transform="matrix(0.64881582,0,0,0.64881582,291.31688,312.82643)" />
      <path
         sodipodi:open="true"
         sodipodi:end="2.8106973"
         sodipodi:start="0.33557478"
         transform="matrix(0.64881582,0,0,0.64881582,291.31688,312.82643)"
         d="M 509.99861,366.13897 C 432.38198,588.68563 189.05155,706.17462 -33.495098,628.55798 -157.07583,585.45727 -254.04537,488.0329 -296.56733,364.25184"
         sodipodi:ry="426.76056"
         sodipodi:rx="426.76056"
         sodipodi:cy="225.60162"
         sodipodi:cx="107.04225"
         id="path4138"
         style="fill:#2fa4e7;fill-opacity:1;stroke:none;stroke-width:12.33015537;marker-start:none;marker-mid:none;display:inline"
         sodipodi:type="arc" />
      <path
         sodipodi:type="arc"
         style="fill:#c71c22;fill-opacity:1;stroke:none;stroke-width:12.33015537;marker-start:none;marker-mid:none;display:inline"
         id="path4155"
         sodipodi:cx="107.04225"
         sodipodi:cy="225.60162"
         sodipodi:rx="426.76056"
         sodipodi:ry="426.76056"
         d="M 509.99861,366.13897 C 432.38198,588.68563 189.05155,706.17462 -33.495098,628.55798 -157.07583,585.45727 -254.04537,488.0329 -296.56733,364.25184"
         transform="matrix(0.64881582,0,0,-0.64881582,291.31688,604.49713)"
         sodipodi:start="0.33557478"
         sodipodi:end="2.8106973"
         sodipodi:open="true" />
      <path
         transform="matrix(0.64881582,0,0,0.64881582,291.31688,312.82643)"
         d="m 533.80281,225.60162 c 0,235.69335 -191.06721,426.76056 -426.76056,426.76056 -235.69335,0 -426.76056,-191.06721 -426.76056,-426.76056 0,-235.693345 191.06721,-426.76056 426.76056,-426.76056 235.69335,0 426.76056,191.067215 426.76056,426.76056 z"
         sodipodi:ry="426.76056"
         sodipodi:rx="426.76056"
         sodipodi:cy="225.60162"
         sodipodi:cx="107.04225"
         id="path4157"
         style="fill:none;stroke:#1995dc;stroke-width:12.33015537;stroke-linecap:square;stroke-linejoin:miter;stroke-miterlimit:4;stroke-opacity:1;stroke-dasharray:none;marker-start:none;marker-mid:none;display:inline"
         sodipodi:type="arc" />
      <text
         sodipodi:linespacing="125%"
         id="text4159"
         y="493.50937"
         x="214.33028"
         style="font-size:134.83518982px;font-style:normal;font-weight:normal;line-height:125%;letter-spacing:0px;word-spacing:0px;fill:#1995dc;fill-opacity:1;fill-rule:evenodd;stroke:none;display:inline;font-family:Sans"
         xml:space="preserve"><tspan
           y="493.50937"
           x="214.33028"
           id="tspan4161"
           sodipodi:role="line">Pnyx</tspan></text>
      <path
         id="path4163"
         d="m 250.125,244.34375 -14,27.65625 -30.71875,4.15625 22,21.875 -5.53125,30.46875 27.5625,-14.15625 27.28125,14.6875 -4.9375,-30.59375 22.40625,-21.40625 -30.625,-4.75 -13.4375,-27.9375 z m 212.3125,0 L 448.46875,272 417.75,276.15625 l 21.96875,21.875 -5.53125,30.46875 27.5625,-14.15625 27.3125,14.6875 -4.9375,-30.59375 22.40625,-21.40625 -30.65625,-4.75 -13.4375,-27.9375 z m -105.46875,1.375 -14,27.65625 -30.71875,4.15625 22,21.84375 -5.53125,30.5 27.5625,-14.15625 27.3125,14.6875 -4.96875,-30.59375 22.40625,-21.40625 -30.625,-4.75 -13.4375,-27.9375 z m -94.53125,338.34375 -13.96875,27.65625 -30.71875,4.1875 21.96875,21.84375 -5.53125,30.5 27.5625,-14.15625 27.3125,14.6875 -4.9375,-30.625 L 306.53125,616.75 275.875,612 262.4375,584.0625 z m 212.34375,0 -14,27.65625 -30.71875,4.1875 22,21.84375 -5.53125,30.5 27.5625,-14.15625 27.28125,14.6875 -4.9375,-30.625 22.40625,-21.40625 -30.625,-4.75 -13.4375,-27.9375 z m -105.5,1.375 -13.96875,27.65625 -30.71875,4.15625 21.96875,21.875 -5.53125,30.5 27.59375,-14.1875 27.28125,14.71875 -4.9375,-30.625 22.40625,-21.40625 -30.625,-4.75 -13.46875,-27.9375 z"
         style="fill:#ffffff;fill-opacity:1;fill-rule:evenodd;stroke:none;display:inline"
         inkscape:connector-curvature="0" />
    </g>
  </g>
</svg>
