<?xml version="1.0" encoding="UTF-8" standalone="no"?>
<svg
   xmlns:dc="http://purl.org/dc/elements/1.1/"
   xmlns:cc="http://creativecommons.org/ns#"
   xmlns:rdf="http://www.w3.org/1999/02/22-rdf-syntax-ns#"
   xmlns:svg="http://www.w3.org/2000/svg"
   xmlns="http://www.w3.org/2000/svg"
   xmlns:sodipodi="http://sodipodi.sourceforge.net/DTD/sodipodi-0.dtd"
   xmlns:inkscape="http://www.inkscape.org/namespaces/inkscape"
   version="1.1"
   id="Your_Icon"
   x="0px"
   y="0px"
   width="200"
   height="200"
   viewBox="0 0 200 200"
   enable-background="new 0 0 100 100"
   xml:space="preserve"
   inkscape:version="0.48.2 r9819"
   sodipodi:docname="powerful.svg"
   inkscape:export-filename="/Users/guillaumechabin/git/pnyx/static/pnyx/images/powerful.png"
   inkscape:export-xdpi="90"
   inkscape:export-ydpi="90"><metadata
   id="metadata39"><rdf:RDF><cc:Work
       rdf:about=""><dc:format>image/svg+xml</dc:format><dc:type
         rdf:resource="http://purl.org/dc/dcmitype/StillImage" /><dc:title></dc:title></cc:Work></rdf:RDF></metadata><defs
   id="defs37" /><sodipodi:namedview
   pagecolor="#ffffff"
   bordercolor="#666666"
   borderopacity="1"
   objecttolerance="10"
   gridtolerance="10"
   guidetolerance="10"
   inkscape:pageopacity="0"
   inkscape:pageshadow="2"
   inkscape:window-width="1280"
   inkscape:window-height="706"
   id="namedview35"
   showgrid="false"
   inkscape:zoom="2.36"
   inkscape:cx="70.689501"
   inkscape:cy="108.04661"
   inkscape:window-x="0"
   inkscape:window-y="0"
   inkscape:window-maximized="0"
   inkscape:current-layer="g3784"
   fit-margin-top="0"
   fit-margin-left="0"
   fit-margin-right="0"
   fit-margin-bottom="0" />




<g
   id="g3784"
   transform="matrix(1.8181821,0,0,1.8181821,9.090794,9.09767)"><g
     style="fill:#2fa4e7;fill-opacity:1"
     id="g3">
	<path
   style="fill:#2fa4e7;fill-opacity:1"
   id="path5"
   d="m 10,62 c 0,1.657 1.343,3 3,3 h 4 c 1.657,0 3,-1.343 3,-3 V 37 c 0,-1.657 -1.343,-3 -3,-3 h -4 c -1.657,0 -3,1.343 -3,3 v 25 z"
   inkscape:connector-curvature="0" />
</g><g
     style="fill:#2fa4e7;fill-opacity:1"
     id="g7">
	<path
   style="fill:#2fa4e7;fill-opacity:1"
   id="path9"
   d="m 80,62 c 0,1.657 1.343,3 3,3 h 4 c 1.657,0 3,-1.343 3,-3 V 37 c 0,-1.657 -1.343,-3 -3,-3 h -4 c -1.657,0 -3,1.343 -3,3 v 25 z"
   inkscape:connector-curvature="0" />
</g><g
     style="fill:#2fa4e7;fill-opacity:1"
     id="g11">
	<path
   style="fill:#2fa4e7;fill-opacity:1"
   id="path13"
   d="m 21,70 c 0,1.657 1.343,3 3,3 h 4 c 1.657,0 3,-1.343 3,-3 V 30 c 0,-1.657 -1.343,-3 -3,-3 h -4 c -1.657,0 -3,1.343 -3,3 v 40 z"
   inkscape:connector-curvature="0" />
</g><g
     style="fill:#2fa4e7;fill-opacity:1"
     id="g15">
	<path
   style="fill:#2fa4e7;fill-opacity:1"
   id="path17"
   d="m 69,70 c 0,1.657 1.343,3 3,3 h 4 c 1.657,0 3,-1.343 3,-3 V 30 c 0,-1.657 -1.343,-3 -3,-3 h -4 c -1.657,0 -3,1.343 -3,3 v 40 z"
   inkscape:connector-curvature="0" />
</g><g
     style="fill:#2fa4e7;fill-opacity:1"
     id="g19">
	<rect
   style="fill:#2fa4e7;fill-opacity:1"
   id="rect21"
   height="10"
   width="36"
   y="45"
   x="32" />
	<rect
   style="fill:#2fa4e7;fill-opacity:1"
   id="rect23"
   height="10"
   width="10"
   y="45"
   x="10" />
	<rect
   style="fill:#2fa4e7;fill-opacity:1"
   id="rect25"
   height="10"
   width="10"
   y="45"
   x="21" />
	<rect
   style="fill:#2fa4e7;fill-opacity:1"
   id="rect27"
   height="10"
   width="10"
   y="45"
   x="80" />
	<path
   style="fill:#2fa4e7;fill-opacity:1"
   id="path29"
   d="m 97,45 h -6 v 10 h 6 c 1.657,0 3,-1.343 3,-3 v -4 c 0,-1.657 -1.343,-3 -3,-3 z"
   inkscape:connector-curvature="0" />
	<rect
   style="fill:#2fa4e7;fill-opacity:1"
   id="rect31"
   height="10"
   width="10"
   y="45"
   x="69" />
	<path
   style="fill:#2fa4e7;fill-opacity:1"
   id="path33"
   d="M 9,45 H 3 c -1.657,0 -3,1.343 -3,3 v 4 c 0,1.657 1.343,3 3,3 H 9 V 45 z"
   inkscape:connector-curvature="0" />
</g></g>
<rect
   style="fill:none;stroke:#999999;stroke-width:3.34316635;stroke-linecap:square;stroke-linejoin:round;stroke-miterlimit:4;stroke-opacity:1;stroke-dasharray:none"
   id="rect3802"
   width="196.65683"
   height="196.65686"
   x="1.6714783"
   y="1.6783371"
   ry="20.031"
   rx="20" /></svg>