<?xml version="1.0" encoding="UTF-8" standalone="no"?>
<svg
   xmlns:dc="http://purl.org/dc/elements/1.1/"
   xmlns:cc="http://creativecommons.org/ns#"
   xmlns:rdf="http://www.w3.org/1999/02/22-rdf-syntax-ns#"
   xmlns:svg="http://www.w3.org/2000/svg"
   xmlns="http://www.w3.org/2000/svg"
   xmlns:sodipodi="http://sodipodi.sourceforge.net/DTD/sodipodi-0.dtd"
   xmlns:inkscape="http://www.inkscape.org/namespaces/inkscape"
   version="1.1"
   id="Layer_4"
   x="0px"
   y="0px"
   width="200"
   height="200"
   viewBox="0 0 200 200"
   enable-background="new 0 0 100 100"
   xml:space="preserve"
   inkscape:version="0.48.2 r9819"
   sodipodi:docname="icon_42464.svg"><metadata
   id="metadata13"><rdf:RDF><cc:Work
       rdf:about=""><dc:format>image/svg+xml</dc:format><dc:type
         rdf:resource="http://purl.org/dc/dcmitype/StillImage" /><dc:title></dc:title></cc:Work></rdf:RDF></metadata><defs
   id="defs11">
	
	
</defs><sodipodi:namedview
   pagecolor="#ffffff"
   bordercolor="#666666"
   borderopacity="1"
   objecttolerance="10"
   gridtolerance="10"
   guidetolerance="10"
   inkscape:pageopacity="0"
   inkscape:pageshadow="2"
   inkscape:window-width="1181"
   inkscape:window-height="759"
   id="namedview9"
   showgrid="false"
   inkscape:zoom="2.36"
   inkscape:cx="-26.662508"
   inkscape:cy="51.28877"
   inkscape:window-x="0"
   inkscape:window-y="0"
   inkscape:window-maximized="0"
   inkscape:current-layer="Layer_4"
   fit-margin-top="0"
   fit-margin-left="0"
   fit-margin-right="0"
   fit-margin-bottom="0" />
<g
   id="g3769"
   transform="matrix(2,0,0,2,-0.8125,-2.5625)"><g
     transform="translate(0.42115676,1.2737637)"
     id="g3765"><path
       inkscape:connector-curvature="0"
       style="fill:#2fa4e7;fill-opacity:1"
       id="path5"
       d="m 29.863,19.481 -2.689,-5.367 -0.101,-0.045 c -0.255,0.577 -6.159,14.226 3.19,25.133 3.996,4.661 4.469,9.515 4.165,12.766 -0.462,4.909 -3.042,9.795 -6.735,12.749 l 2.68,3.349 C 35.008,64.355 38.122,58.489 38.695,52.371 39.247,46.525 37.456,41.007 33.518,36.414 28.503,30.558 28.941,23.632 29.863,19.481 z" /><path
       inkscape:connector-curvature="0"
       style="fill:#2fa4e7;fill-opacity:1"
       id="path7"
       d="M 62.863,61.012 35.741,7.398 C 34.696,5.273 32.127,4.395 30,5.44 27.877,6.482 26.998,9.051 28.044,11.178 L 55.167,64.794 C 56.211,66.919 72.639,96.018 74.765,94.973 76.889,93.927 63.906,63.136 62.863,61.012 z M 38.822,23.401 c -0.708,0.348 -1.565,0.057 -1.914,-0.653 L 30.61,9.919 C 30.261,9.21 30.554,8.352 31.263,8.005 31.971,7.657 32.827,7.949 33.177,8.658 l 6.3,12.828 c 0.346,0.709 0.053,1.567 -0.655,1.915 z" /></g><rect
     style="fill:none;stroke:#999999;stroke-width:1.79509628;stroke-linejoin:round;stroke-miterlimit:4;stroke-opacity:1;stroke-dasharray:none"
     id="rect3758"
     width="98.204903"
     height="98.204903"
     x="1.3187264"
     y="2.1712785"
     ry="11.31393" /></g>
</svg>