<?xml version="1.0" encoding="UTF-8" standalone="no"?>
<!-- Created with Inkscape (http://www.inkscape.org/) -->

<svg
   xmlns:osb="http://www.openswatchbook.org/uri/2009/osb"
   xmlns:dc="http://purl.org/dc/elements/1.1/"
   xmlns:cc="http://creativecommons.org/ns#"
   xmlns:rdf="http://www.w3.org/1999/02/22-rdf-syntax-ns#"
   xmlns:svg="http://www.w3.org/2000/svg"
   xmlns="http://www.w3.org/2000/svg"
   xmlns:sodipodi="http://sodipodi.sourceforge.net/DTD/sodipodi-0.dtd"
   xmlns:inkscape="http://www.inkscape.org/namespaces/inkscape"
   width="200"
   height="200"
   id="svg2"
   version="1.1"
   inkscape:version="0.48.2 r9819"
   sodipodi:docname="input_partial_borda.svg">
  <defs
     id="defs4">
    <linearGradient
       id="linearGradient5485"
       osb:paint="solid">
      <stop
         style="stop-color:#ffffff;stop-opacity:1;"
         offset="0"
         id="stop5487" />
    </linearGradient>
    <linearGradient
       id="linearGradient4037"
       osb:paint="solid">
      <stop
         style="stop-color:#ffffff;stop-opacity:1;"
         offset="0"
         id="stop4039" />
    </linearGradient>
  </defs>
  <sodipodi:namedview
     id="base"
     pagecolor="#ffffff"
     bordercolor="#666666"
     borderopacity="1.0"
     inkscape:pageopacity="0.0"
     inkscape:pageshadow="2"
     inkscape:zoom="5.56"
     inkscape:cx="74.026795"
     inkscape:cy="110.87778"
     inkscape:document-units="px"
     inkscape:current-layer="layer2"
     showgrid="false"
     inkscape:window-width="1280"
     inkscape:window-height="752"
     inkscape:window-x="0"
     inkscape:window-y="0"
     inkscape:window-maximized="1"
     fit-margin-top="0"
     fit-margin-left="0"
     fit-margin-right="0"
     fit-margin-bottom="0" />
  <metadata
     id="metadata7">
    <rdf:RDF>
      <cc:Work
         rdf:about="">
        <dc:format>image/svg+xml</dc:format>
        <dc:type
           rdf:resource="http://purl.org/dc/dcmitype/StillImage" />
        <dc:title></dc:title>
      </cc:Work>
    </rdf:RDF>
  </metadata>
  <g
     inkscape:groupmode="layer"
     id="layer2"
     inkscape:label="Layer"
     style="display:inline"
     transform="translate(0,-840.21313)">
    <rect
       style="fill:#317eac;fill-opacity:1;fill-rule:evenodd;stroke:none"
       id="rect3885"
       width="200"
       height="200"
       x="0"
       y="840.21313"
       ry="0.43529543" />
    <rect
       ry="0.43529543"
       y="840.21313"
       x="0"
       height="200"
       width="200"
       id="rect4078"
       style="fill:#2fa4e7;fill-opacity:1;fill-rule:evenodd;stroke:none" />
  </g>
  <g
     inkscape:label="Layer 1"
     inkscape:groupmode="layer"
     id="layer1"
     transform="translate(0,-840.21313)">
    <g
       id="g4053"
       transform="translate(0,-13.520256)">
      <rect
         ry="6.6178179"
         y="880.38049"
         x="43.169331"
         height="146.7058"
         width="113.66134"
         id="rect2985"
         style="fill:none;stroke:#ffffff;stroke-width:3.29420257;stroke-miterlimit:4;stroke-opacity:1;stroke-dasharray:none" />
      <g
         transform="translate(6.6966154,0)"
         id="g4028">
        <text
           xml:space="preserve"
           style="font-size:22.57874107px;font-style:normal;font-weight:normal;line-height:125%;letter-spacing:0px;word-spacing:0px;fill:#ffffff;fill-opacity:1;stroke:#ffffff;stroke-width:0.20588766;stroke-opacity:1;font-family:Sans"
           x="51.987877"
           y="921.20245"
           id="text3895"
           sodipodi:linespacing="125%"><tspan
             sodipodi:role="line"
             id="tspan3897"
             x="51.987877"
             y="921.20245"
             style="stroke-width:0.20588766">1</tspan></text>
        <g
           id="g4022"
           transform="translate(0,-0.51578581)">
          <rect
             transform="scale(1,-1)"
             rx="0"
             ry="1.0649366"
             y="-909.40051"
             x="74.558105"
             height="2.1298733"
             width="2.1298733"
             id="rect3760"
             style="fill:#000000;fill-opacity:0.94117647;stroke:#ffffff;stroke-width:1.98788035;stroke-miterlimit:4;stroke-opacity:1;stroke-dasharray:none" />
          <path
             inkscape:connector-curvature="0"
             id="path3832"
             d="m 86.536177,908.33558 c 3.46631,0 6.9326,0 10.3989,0 11.230813,0 22.461623,0 33.692433,0 0.27731,0 -0.55461,0 -0.83191,0 -0.55461,0 -1.10922,0 -1.66383,0"
             style="fill:#000000;fill-opacity:0.94117647;stroke:#ffffff;stroke-width:2.05887675;stroke-linecap:butt;stroke-linejoin:miter;stroke-miterlimit:4;stroke-opacity:1;stroke-dasharray:none" />
          <rect
             style="fill:#000000;fill-opacity:0.94117647;stroke:#ffffff;stroke-width:1.98788035;stroke-miterlimit:4;stroke-opacity:1;stroke-dasharray:none"
             id="rect5522"
             width="2.1298733"
             height="2.1298733"
             x="74.558105"
             y="-919.69482"
             ry="1.0649366"
             rx="0"
             transform="scale(1,-1)" />
          <path
             style="fill:#000000;fill-opacity:1;stroke:#ffffff;stroke-width:2.05887675;stroke-linecap:butt;stroke-linejoin:miter;stroke-miterlimit:4;stroke-opacity:1;stroke-dasharray:none"
             d="m 86.536177,918.62989 c 3.46631,0 6.9326,0 10.3989,0 11.230813,0 22.461623,0 33.692433,0 0.27731,0 -0.55461,0 -0.83191,0 -0.55461,0 -1.10922,0 -1.66383,0"
             id="path5524"
             inkscape:connector-curvature="0" />
        </g>
      </g>
      <g
         transform="translate(7.8214905,1.4739606)"
         id="g4037">
        <text
           xml:space="preserve"
           style="font-size:22.19252396px;font-style:normal;font-weight:normal;line-height:125%;letter-spacing:0px;word-spacing:0px;fill:#ffffff;fill-opacity:1;stroke:#ffffff;stroke-width:0.20588766;stroke-opacity:1;font-family:Sans"
           x="51.058357"
           y="960.59772"
           id="text3899"
           sodipodi:linespacing="125%"><tspan
             sodipodi:role="line"
             id="tspan3901"
             x="51.058357"
             y="960.59772"
             style="stroke-width:0.20588766">2</tspan></text>
        <g
           id="g4018"
           transform="translate(0,-2.2980394)">
          <rect
             style="fill:#000000;fill-opacity:0.94117647;stroke:#ffffff;stroke-width:1.98788035;stroke-miterlimit:4;stroke-opacity:1;stroke-dasharray:none"
             id="rect5533"
             width="2.1298733"
             height="2.1298733"
             x="74.558136"
             y="-955.72516"
             ry="1.0649366"
             rx="0"
             transform="scale(1,-1)" />
          <path
             style="fill:#000000;fill-opacity:1;stroke:#ffffff;stroke-width:2.05887675;stroke-linecap:butt;stroke-linejoin:miter;stroke-miterlimit:4;stroke-opacity:1;stroke-dasharray:none"
             d="m 86.536217,954.66022 c 3.46629,0 6.93259,0 10.39889,0 11.230813,0 22.461613,0 33.692433,0 0.2773,0 -0.55461,0 -0.83191,0 -0.55461,0 -1.10922,0 -1.66382,0"
             id="path5535"
             inkscape:connector-curvature="0" />
        </g>
      </g>
      <g
         transform="translate(7.3234929,0)"
         id="g4044">
        <text
           xml:space="preserve"
           style="font-size:21.74895859px;font-style:normal;font-weight:normal;line-height:125%;letter-spacing:0px;word-spacing:0px;fill:#ffffff;fill-opacity:1;stroke:#ffffff;stroke-width:0.20588766;stroke-opacity:1;font-family:Sans"
           x="52.025505"
           y="1002.6117"
           id="text3903"
           sodipodi:linespacing="125%"><tspan
             sodipodi:role="line"
             id="tspan3905"
             x="52.025505"
             y="1002.6117"
             style="stroke-width:0.20588766">3</tspan></text>
        <g
           id="g4012"
           transform="translate(0,-1.1324082)">
          <rect
             transform="scale(1,-1)"
             rx="0"
             ry="1.0649366"
             y="-1002.0499"
             x="74.558136"
             height="2.1298733"
             width="2.1298733"
             id="rect5529"
             style="fill:#000000;fill-opacity:0.94117647;stroke:#ffffff;stroke-width:1.98788035;stroke-miterlimit:4;stroke-opacity:1;stroke-dasharray:none" />
          <rect
             style="fill:#000000;fill-opacity:0.94117647;stroke:#ffffff;stroke-width:1.98788035;stroke-miterlimit:4;stroke-opacity:1;stroke-dasharray:none"
             id="rect5556"
             width="2.1298733"
             height="2.1298733"
             x="74.558136"
             y="-991.75555"
             ry="1.0649366"
             rx="0"
             transform="scale(1,-1)" />
          <path
             style="fill:#000000;fill-opacity:1;stroke:#ffffff;stroke-width:2.05887675;stroke-linecap:butt;stroke-linejoin:miter;stroke-miterlimit:4;stroke-opacity:1;stroke-dasharray:none"
             d="m 86.536217,1000.985 c 3.46629,0 6.93259,0 10.39889,0 11.230813,0 22.461613,0 33.692433,0 0.2773,0 -0.55461,0 -0.83191,0 -0.55461,0 -1.10922,0 -1.66382,0"
             id="path3887"
             inkscape:connector-curvature="0" />
          <path
             inkscape:connector-curvature="0"
             id="path3889"
             d="m 86.536217,990.98497 c 3.46629,0 6.93259,0 10.39889,0 11.230813,0 22.461613,0 33.692433,0 0.2773,0 -0.55461,0 -0.83191,0 -0.55461,0 -1.10922,0 -1.66382,0"
             style="fill:#000000;fill-opacity:1;stroke:#ffffff;stroke-width:2.05887675;stroke-linecap:butt;stroke-linejoin:miter;stroke-miterlimit:4;stroke-opacity:1;stroke-dasharray:none" />
        </g>
      </g>
    </g>
    <g
       transform="translate(0,-13.520256)"
       id="g4080">
      <rect
         style="fill:none;stroke:#ffffff;stroke-width:3.29420257;stroke-miterlimit:4;stroke-opacity:1;stroke-dasharray:none"
         id="rect4082"
         width="113.66134"
         height="146.7058"
         x="43.169331"
         y="880.38049"
         ry="6.6178179" />
      <g
         id="g4084"
         transform="translate(6.6966154,0)">
        <text
           sodipodi:linespacing="125%"
           id="text4086"
           y="921.20245"
           x="51.987877"
           style="font-size:22.57874107px;font-style:normal;font-weight:normal;line-height:125%;letter-spacing:0px;word-spacing:0px;fill:#ffffff;fill-opacity:1;stroke:#ffffff;stroke-width:0.20588766;stroke-opacity:1;font-family:Sans"
           xml:space="preserve"><tspan
             style="stroke-width:0.20588766"
             y="921.20245"
             x="51.987877"
             id="tspan4088"
             sodipodi:role="line">1</tspan></text>
        <g
           transform="translate(0,-0.51578581)"
           id="g4090">
          <rect
             style="fill:#000000;fill-opacity:0.94117647;stroke:#ffffff;stroke-width:1.98788035;stroke-miterlimit:4;stroke-opacity:1;stroke-dasharray:none"
             id="rect4092"
             width="2.1298733"
             height="2.1298733"
             x="74.558105"
             y="-909.40051"
             ry="1.0649366"
             rx="0"
             transform="scale(1,-1)" />
          <path
             style="fill:#000000;fill-opacity:0.94117647;stroke:#ffffff;stroke-width:2.05887675;stroke-linecap:butt;stroke-linejoin:miter;stroke-miterlimit:4;stroke-opacity:1;stroke-dasharray:none"
             d="m 86.536177,908.33558 c 3.46631,0 6.9326,0 10.3989,0 11.230813,0 22.461623,0 33.692433,0 0.27731,0 -0.55461,0 -0.83191,0 -0.55461,0 -1.10922,0 -1.66383,0"
             id="path4094"
             inkscape:connector-curvature="0" />
          <rect
             transform="scale(1,-1)"
             rx="0"
             ry="1.0649366"
             y="-919.69482"
             x="74.558105"
             height="2.1298733"
             width="2.1298733"
             id="rect4096"
             style="fill:#000000;fill-opacity:0.94117647;stroke:#ffffff;stroke-width:1.98788035;stroke-miterlimit:4;stroke-opacity:1;stroke-dasharray:none" />
          <path
             inkscape:connector-curvature="0"
             id="path4098"
             d="m 86.536177,918.62989 c 3.46631,0 6.9326,0 10.3989,0 11.230813,0 22.461623,0 33.692433,0 0.27731,0 -0.55461,0 -0.83191,0 -0.55461,0 -1.10922,0 -1.66383,0"
             style="fill:#000000;fill-opacity:1;stroke:#ffffff;stroke-width:2.05887675;stroke-linecap:butt;stroke-linejoin:miter;stroke-miterlimit:4;stroke-opacity:1;stroke-dasharray:none" />
        </g>
      </g>
      <g
         id="g4100"
         transform="translate(7.8214905,1.4739606)">
        <text
           sodipodi:linespacing="125%"
           id="text4102"
           y="960.59772"
           x="51.058357"
           style="font-size:22.19252396px;font-style:normal;font-weight:normal;line-height:125%;letter-spacing:0px;word-spacing:0px;fill:#ffffff;fill-opacity:1;stroke:#ffffff;stroke-width:0.20588766;stroke-opacity:1;font-family:Sans"
           xml:space="preserve"><tspan
             style="stroke-width:0.20588766"
             y="960.59772"
             x="51.058357"
             id="tspan4104"
             sodipodi:role="line">2</tspan></text>
        <g
           transform="translate(0,-2.2980394)"
           id="g4106">
          <rect
             transform="scale(1,-1)"
             rx="0"
             ry="1.0649366"
             y="-955.72516"
             x="74.558136"
             height="2.1298733"
             width="2.1298733"
             id="rect4108"
             style="fill:#000000;fill-opacity:0.94117647;stroke:#ffffff;stroke-width:1.98788035;stroke-miterlimit:4;stroke-opacity:1;stroke-dasharray:none" />
          <path
             inkscape:connector-curvature="0"
             id="path4110"
             d="m 86.536217,954.66022 c 3.46629,0 6.93259,0 10.39889,0 11.230813,0 22.461613,0 33.692433,0 0.2773,0 -0.55461,0 -0.83191,0 -0.55461,0 -1.10922,0 -1.66382,0"
             style="fill:#000000;fill-opacity:1;stroke:#ffffff;stroke-width:2.05887675;stroke-linecap:butt;stroke-linejoin:miter;stroke-miterlimit:4;stroke-opacity:1;stroke-dasharray:none" />
        </g>
      </g>
      <g
         id="g4112"
         transform="translate(7.3234929,0)">
        <text
           sodipodi:linespacing="125%"
           id="text4114"
           y="1002.6117"
           x="52.025505"
           style="font-size:21.74895859px;font-style:normal;font-weight:normal;line-height:125%;letter-spacing:0px;word-spacing:0px;fill:#ffffff;fill-opacity:1;stroke:#ffffff;stroke-width:0.20588766;stroke-opacity:1;font-family:Sans"
           xml:space="preserve"><tspan
             style="stroke-width:0.20588766"
             y="1002.6117"
             x="52.025505"
             id="tspan4116"
             sodipodi:role="line">3</tspan></text>
        <g
           transform="translate(0,-1.1324082)"
           id="g4118">
          <rect
             style="fill:#000000;fill-opacity:0.94117647;stroke:#ffffff;stroke-width:1.98788035;stroke-miterlimit:4;stroke-opacity:1;stroke-dasharray:none"
             id="rect4120"
             width="2.1298733"
             height="2.1298733"
             x="74.558136"
             y="-1002.0499"
             ry="1.0649366"
             rx="0"
             transform="scale(1,-1)" />
          <rect
             transform="scale(1,-1)"
             rx="0"
             ry="1.0649366"
             y="-991.75555"
             x="74.558136"
             height="2.1298733"
             width="2.1298733"
             id="rect4122"
             style="fill:#000000;fill-opacity:0.94117647;stroke:#ffffff;stroke-width:1.98788035;stroke-miterlimit:4;stroke-opacity:1;stroke-dasharray:none" />
          <path
             inkscape:connector-curvature="0"
             id="path4124"
             d="m 86.536217,1000.985 c 3.46629,0 6.93259,0 10.39889,0 11.230813,0 22.461613,0 33.692433,0 0.2773,0 -0.55461,0 -0.83191,0 -0.55461,0 -1.10922,0 -1.66382,0"
             style="fill:#000000;fill-opacity:1;stroke:#ffffff;stroke-width:2.05887675;stroke-linecap:butt;stroke-linejoin:miter;stroke-miterlimit:4;stroke-opacity:1;stroke-dasharray:none" />
          <path
             style="fill:#000000;fill-opacity:1;stroke:#ffffff;stroke-width:2.05887675;stroke-linecap:butt;stroke-linejoin:miter;stroke-miterlimit:4;stroke-opacity:1;stroke-dasharray:none"
             d="m 86.536217,990.98497 c 3.46629,0 6.93259,0 10.39889,0 11.230813,0 22.461613,0 33.692433,0 0.2773,0 -0.55461,0 -0.83191,0 -0.55461,0 -1.10922,0 -1.66382,0"
             id="path4126"
             inkscape:connector-curvature="0" />
        </g>
      </g>
    </g>
  </g>
</svg>
